<?xml version="1.0" encoding="UTF-8"?>
<svg xmlns="http://www.w3.org/2000/svg" version="1.1" viewBox="0 0 2229.6 582.7">
  <defs>
    <style>
      .cls-1 {
        fill: #fff;
      }
    </style>
  </defs>
  <!-- Generator: Adobe Illustrator 28.6.0, SVG Export Plug-In . SVG Version: 1.2.0 Build 709)  -->
  <g>
    <g id="Capa_2">
      <g id="Capa_1-2">
        <g>
          <path class="cls-1" d="M403.2,532.6c-1.7,3.2-3.6,6.9-5.5,10.5-6.8,13.5-17.6,23.6-30.8,29.6-10.3,4.7-20.9,10-33.3,9.8-9.8-.1-17.8-4.7-26.4-7.5-6-2-11.4-6.1-16.7-9.7-5.1-3.4-6.5-9-3.6-13.2,2.9-4.1,8-7,13.7-2.9,8.9,6.5,19.1,10.5,30,11.5,5.5.5,11.2-.5,16.6-1.8,14.4-3.5,25.1-11.8,32.6-24.8,4.2-7.3,5.9-15.1,8-23,.9-3.3,4.2-6.6,7.3-8.4,3.8-2.1,7.1,1.3,10.1,3.5,5.2,3.9,9.6,8.9,15.2,12,7.7,4.2,15.9,5.5,25.1,2.5s16.9-7.4,22.1-15.4c6.3-9.6,10.3-19.9,5.1-31.5-2.5-5.6-5.2-11.2-8-16.7-2.5-5.1-.1-11.3,5.4-12.5,2.4-.5,5-.5,7.4-.2,18.8,2.4,33.1-5,41.6-21.4,8.3-15.8,4.1-35.2-12-47.3-2.7-2-5.6-3.9-8.7-5.2-4.2-1.8-6.2-4.5-6.3-9,0-4.6,2-7.4,6-9.7,10.8-6.2,18.2-15.2,22.5-27.2,3-8.4,3.3-16.9,1.5-25-2.2-10-7.4-19-15.7-25.8-2.1-1.8-4.3-3.4-6.5-5.1-5-3.9-5.8-8.3-3.5-14,2.7-6.6,6.2-13.2,7.1-20.2.9-7.8-1.6-15.6-6-22.5-4.9-7.5-11.9-12.3-19.8-16.1-6-2.9-7.6-9.3-3.7-14.7,6.4-8.7,11.5-17.9,10.1-29.2-1.9-14.7-8.8-25.8-23-31.7-3.9-1.6-7.8-3.2-11.7-4.8-3.9-1.6-4.9-4.6-4.7-8.4.2-4.5.2-9,.2-13.5,0-15-14.4-29.8-27.9-33.6-12.2-3.4-22.3-.3-32.1,6-10.2,6.5-16.9-1-17.8-8.8-1.7-14.7-9.7-25.3-22.4-31.9-6.1-3.2-13.5-5.5-20.3-5.5-13,0-24.6,5.3-32,16.5-4.8,7.3-8,15.6-11.7,23.6-.6,1.2-.2,3-.2,4.5,0,148.2,0,296.4,0,444.6,0,25.4-11,45-31.7,58.8-7.8,5.2-17.3,7.6-25.7,11.9-8,4.1-16.3,2.9-24.4,2.1-5.7-.6-11.3-3.6-16.7-5.9-13.4-5.6-24.6-14.1-33-26-2.8-3.9-5.1-8.3-7-12.8-1.9-4.4-2.7-4.9-7.1-2.5-11.1,6.2-23.1,8-35.5,6.5-20.3-2.4-34.9-13.2-44.8-31.2-6.7-12.1-6.8-24.9-5.3-38,.3-2.6,2-6,.9-7.6-1.1-1.5-5-.8-7.4-1.6-15.8-5.5-28.3-14.5-36.5-29.8-6-11.2-6.8-22.7-6-34.7.8-11.2,6.4-20.4,13.3-29,1.8-2.3,4.1-4.2,6.3-6.2,1.8-1.7,2.6-3,.3-5.2-17.9-17-23.1-38.4-19.2-61.8,2.4-14.5,10.4-26.9,21.4-37.1,1-1,2-3.3,1.5-4.3-3.5-7.5-5-15.2-4.7-23.5.6-18.3,8.4-32.9,22.5-44.2,3-2.4,4.2-4,2.2-8.4-5.9-13.4-6.3-27.3-2-41.5,4.5-14.7,13.4-25.8,26.9-32.1,8.3-3.8,8.3-10.4,9.5-16.9,3.5-19.8,14.2-33.8,31.9-43.2,12.5-6.6,25.4-6.2,38.7-4.8.9,0,1.8.7,2.7,1.1,5,2.5,6.3,1.8,8.7-3.2,5.6-11.6,13.5-21.3,24.6-28.2C198.1,1.8,212.2-1.4,227.3.8c12.2,1.8,23.1,7.2,31.9,16.1,3.7,3.8,3.5,9.2,0,13-3.8,4.2-7.6,4.5-12.6,1.3-3.5-2.3-6.9-4.9-10.7-6.7-15.3-7.2-30-5.6-43.5,4.3-10.2,7.5-16.2,17.6-17.4,30.6-.8,8.8-10,11.7-18,6.2-6.8-4.6-14.3-7.7-22.5-7.1-15.1,1.1-29.3,10.5-34.9,26-2.6,7.1-2.1,14-1.9,21,.2,7.6-.7,10-10.1,12.6-12.2,3.3-22.6,12.4-27.3,26.2-4.8,14.3.4,25.6,8.2,36.7,3.7,5.2,2.4,12.1-3.3,15-8.4,4.2-16.2,9-20.9,17.7-5.8,10.6-6.7,21.5-2.2,32.8,1.5,3.8,3.7,7.3,5.5,11,1.9,3.9-1.2,9.2-6.9,13.2-14.9,10.4-22.3,25-20.9,43,1.4,16.7,9.9,29.6,24.5,38.1,3.8,2.2,7,4.9,6.9,9.5-.1,4.6-2.7,7.5-7.2,9.6-12.8,6-21.2,15.9-24,30-2.2,11,3,26.1,13.1,34.6,9.7,8.2,20.8,10.9,33.2,9,4.8-.8,9.3,0,11.7,4.4,2.2,4,1.1,8-1.7,12-5.1,7.1-9.2,15.1-8.4,24.1,1.3,14.2,7.5,26.1,20.9,32.5,5.8,2.7,12.4,4.8,18.7,5,10.9.3,20.1-5.1,27.8-12.8.7-.7,1.2-1.6,2-2.2,3-2.4,5.9-5.7,10.3-4.2,5.2,1.7,8.2,5.6,8.6,11,.6,9.5,4.4,17.8,10,25.2,8.7,11.4,19.9,18.5,34.6,20.8,7.8,1.2,15.1.3,22.3-1.5,12.9-3.2,22.9-10.8,30-22.1,6.5-10.2,8.8-21.4,8.8-33.4,0-145.5,0-291.1-.1-436.6,0-20.5,8.8-36.6,22.8-50.3,13.8-13.5,31.1-18.4,49.7-15.2,19.4,3.4,35.1,13.6,45,31.4,1.4,2.4,2.4,5,3.4,7.6,1.5,3.9,4.3,3.1,7,2.2,11.8-3.9,23.5-3.7,35.4,0,12.7,3.9,22.7,11.5,29.8,22.3,3.8,5.7,6.2,12.5,8.4,19.1,1.5,4.6,1.4,9.8,2.6,14.6.4,1.6,2,3.5,3.6,4.2,14.2,6.4,24.9,16.4,30.1,31.2,2.4,6.8,4.2,14,4.6,21.2.6,9.9-2.7,19.2-7.3,28.6,24.5,19.2,33.1,43.3,21.6,73.1,4.9,6.4,10.3,12.7,14.8,19.6,3,4.6,5.6,9.7,7,15,1.8,6.9,2.9,14.2,3.2,21.4.5,11.3-4.5,21.4-9.7,31-2.9,5.4-7.1,10.1-11.3,14.5-2.1,2.2-1.7,3.3,0,4.7,8.7,6.8,14,16.1,17.7,26,3.9,10.2,5.1,20.8,1.2,31.9-4.4,12.5-10.4,23.5-20.9,31.6-7.4,5.7-15.4,10-24.8,11.2-3.2.4-4.4,1-3.6,5,5.1,23.4,0,44.6-19.3,60.6-15,12.5-32.4,14.8-50.8,11.5-6.1-1.1-11.7-4.7-18.7-7.7h0Z"/>
          <path class="cls-1" d="M1333.5,564.3h-43.2v-5.5c0-23.8.3-47.7-.1-71.5-.2-12.6-.7-25.3-2.8-37.7-3.4-20.5-19.2-28.3-40-20.6-15.1,5.6-21.3,18.2-22.6,33.2-1.3,15.5-1.8,31.1-2.1,46.7-.3,18.3,0,36.6,0,55.3h-43.2v-5.4c0-27.7.2-55.3-.2-83-.1-9.1-.7-18.4-2.9-27.1-5.9-23.5-27.7-27.6-44.8-17.7-11.5,6.7-16.5,17.9-18.2,31.2-4,31.7-.9,63.5-1.9,95.2,0,2.1,0,4.3,0,6.8h-42.8v-173.3h42.8v18.2c6.6-4.7,12.4-9.2,18.6-13.1,8.2-5.1,17.1-8.4,26.8-8.7,10.6-.3,21.2-1.1,31.3,3.4,10.4,4.6,18.8,11.5,24.8,21.1,2.9,4.6,3.2,4.7,6.7.8,9.1-10.1,19.4-18.4,32.8-22.6,13.3-4.1,26.9-4.7,39.8-1.2,20.3,5.5,35,18.3,38.2,40.5,1.6,10.8,2.7,21.7,2.8,32.6.4,32.7.2,65.3.2,98v4.4h0Z"/>
          <path class="cls-1" d="M823.9,524.4c-13.3,13.9-28,25.1-44.6,33.6-6.9,3.5-14.8,5.8-22.4,7.3-10.8,2.2-21.8,4.4-32.8,4.4-11.4,0-23-2.1-34.3-4.2-7-1.3-13.9-3.8-20.6-6.2-14.5-5.2-26.7-14.4-37.5-25.1-12.4-12.3-21.4-27.1-27.1-43.8-6.5-19.1-8.2-38.9-6-58.8,2.1-19.3,8.3-37.1,19.3-53.5,12.1-17.9,28-30.8,46.8-40.2,9.8-4.9,20.9-7.3,31.5-10.4,14.3-4.2,29-3.6,43.5-1.9,12.8,1.5,25.1,5.1,37,10.4,13.1,5.8,24.9,13.2,35.6,22.5,4.4,3.9,8.3,8.2,12.9,12.8-7.5,7.1-14.2,13.6-21.1,20.1-2.4,2.3-5.6,4-7.4,6.7-2.2,3.5-4,2.3-5.8.3-10-10.8-22.2-18.4-35.3-24.6-3.9-1.9-8.4-2.8-12.7-3.6-6.6-1.2-13.4-2.5-20.1-2.6-28-.3-50.3,11.4-66.6,33.7-5,6.9-7.6,15.7-10.7,23.9-4.7,12.4-4,25.4-1.7,37.9,3.5,19.5,13,36.2,29.6,48,19.9,14.1,42.3,17.9,65.8,14.2,16-2.6,30.1-10.4,42.4-21.1,3.5-3.1,7-6.2,10.7-9.1.7-.6,2.7-.8,3.2-.3,9.5,9.8,18.8,19.7,28.4,29.9h0Z"/>
          <path class="cls-1" d="M2146,564.4h-42.2v-17.8c-4.1,2.8-7.4,4.9-10.4,7.3-14.9,11.8-32.1,15.7-50.7,14.1-23.3-2-41.4-13.5-55.8-31.3-10.5-13-17.2-27.8-18.4-44.7-.5-7.4-2-14.9-1.4-22.2,2.3-27.9,13.1-51.7,35.9-68.7,10.4-7.8,22.3-13.2,35.7-13.6,11.4-.3,22.7-1.1,33.9,2.9,11.3,4,21.1,10.2,30.7,18.8v-18.3h42.8v173.5h0ZM2104.7,477.4c.5,0,1-.2,1.5-.3-2-8.5-2.6-17.6-6.2-25.2-5.1-10.8-13.5-18.9-25.5-22.9-13.2-4.4-26.5-4.5-38.5,1.9-14.8,7.8-23.1,21-24.9,37.9-1.4,13.5-.3,26.8,7.2,38.1,10.4,15.7,25.4,23.6,44.8,21.7,11.5-1.2,21.2-6.1,28.9-14.7,9.3-10.3,13.6-22.5,12.6-36.5h0Z"/>
          <path class="cls-1" d="M836.3,189h-6.4c-22.5,0-45-.1-67.5.1-4.8,0-6.2-1.6-5.9-6.1.3-4.8.2-9.7,0-14.5-.1-3.4,1.1-4.8,4.6-4.8,32.7,0,65.3,0,98,0,4.1,0,5.6,1.9,5.2,5.9-1.6,18.8-3.9,37.4-12,54.6-10.1,21.4-24.8,38.7-45.8,50.4-9.3,5.2-18.9,9.2-29.2,11.9-14.2,3.7-28.6,5.5-43.2,4.9-18.7-.8-36.8-3.8-54.4-10.6-25-9.8-44.4-26.3-59.7-47.7-7.5-10.6-12.9-22.4-16.9-35-6.2-19.4-7-39.2-4.2-58.9,2.5-17.5,8.8-34.1,18.7-49.3,7.3-11.2,15.5-21.2,25.7-29.8,10.3-8.7,21.6-15.5,34.1-20.7,11.9-4.9,24-8.7,37-9.3,11.2-.5,22.6-2.4,33.7-1.2,13.6,1.5,27.4,4.4,40.3,8.8,18.9,6.5,35.7,17.1,50.6,30.8,3.2,3,6.7,5.6,10.5,8.7-5.8,5.5-11.3,10.9-17.1,16-1.1.9-4.5.9-5.5,0-8.3-8.4-17.4-15.8-27.8-21.3-9.1-4.8-18.3-9.9-28-13.2-12.5-4.2-25.5-7.1-38.9-6.2-15.3,1.1-30.1,4.2-44.3,10.6-17.5,7.8-32.2,19.1-43.5,34.3-5.8,7.9-9.8,17.3-14,26.4-7.8,16.9-7.3,34.8-5.1,52.6,1.5,12.2,6.3,23.7,12.4,34.4,6.9,12,15.7,22.6,26.8,31.2,9.6,7.4,20.1,13.2,31.5,17.5,14.7,5.6,29.9,8.3,45.5,7.9,30.9-.8,57.3-12.1,77-36.5,6.6-8.2,11.8-17.6,14-28.2.9-4.3,2.2-8.4,3.6-13.6h0Z"/>
          <path class="cls-1" d="M1538.1,530.8c-3.8,4.4-7.2,9-11.3,12.9-12.1,11.6-26.5,18.7-43.1,22.1-13.9,2.9-27.9,3.4-41.6,1.2-24.2-3.9-44.3-15.5-58.7-36-9.7-13.9-15.4-29.1-15.2-46.2.1-10-.4-20.4,1.7-30.1,3.9-18.2,13.5-33.5,27.4-46.2,22.3-20.4,49.1-24.1,77.5-20.5,25.1,3.2,44.9,16,59.1,36.8,6.5,9.5,10.3,20.3,13,31.6,2.6,10.9,2,21.6,2.5,33h-138.7c-.8,8.6,2.9,15.5,7.2,21.6,7,10.1,16.6,16.1,28.9,18.8,20.1,4.4,36.9-1.1,52-14.1,1.2-1,3.8-1.6,5.2-1,11.1,5,22,10.3,34,16h0ZM1504.5,454.5c-1.4-13.4-19.6-28.9-38.8-30.7-24.8-2.3-46.2,9.4-52.9,30.7h91.7Z"/>
          <path class="cls-1" d="M136.4,175.6c-.1,1.2-.3,2.4-.3,3.5,0,16.8,0,33.7,0,50.5,0,2.8.5,4.6,3.6,6.2,5.2,2.6,9.6,6.5,12.1,12.2,1.2,2.7,3.4,4.6,7,4.2,4.1-.4,8.4.4,12.5-.2,2.3-.4,5.1-2.1,6.4-4.1,6.2-9.9,14.6-15.8,26.5-15.6,11.6.2,20,5.9,25.6,16.1,7,12.8,2.3,31.2-11.3,38.1-3.3,1.7-4.8,4.3-4.8,8.6.2,36,.2,72,0,108,0,3,.6,5,3.6,6.7,14.5,8.4,17.6,21.3,14.6,33.4-1.9,7.5-6.4,13.3-13.2,17.1-3.4,1.9-5.3,4-5.1,8.4.5,8.1.2,16.3.1,24.5,0,5.4-4.7,10.2-9.9,10.4-4.9.2-10-4.7-10.1-10.2-.2-8.5-.3-17,0-25.5.1-3.3-.9-5.4-3.6-6.9-7.8-4.2-11.9-11.1-15.3-19-2-4.6-6.5-8.2-10.2-11.9-7.5-7.8-15.1-15.4-22.8-23-1.9-1.9-3.5-2.6-6.9-1.8-14.3,3.4-28-.1-35.3-16-8.1-17.6,2.2-34.2,16.5-39.3,13.5-4.8,26.4-.8,34.9,12.3,4.6,7.1,5.4,15,3,23-1.1,3.6-.3,6,2.6,8.7,8,7.3,15.5,15.1,23.4,22.8,4-2.7,8.2-5.3,12.1-8.4,1-.8,1.3-3,1.3-4.5,0-37,0-74,.1-111,0-3.9-2.8-4.7-4.7-6.7-3.8-3.8-7.3-7.8-11.2-11.4-1.7-1.6-4.1-3.2-6.3-3.5-4.1-.5-8.4.2-12.5-.2-4.1-.5-5.9,1.7-7.6,4.7-6.2,10.8-15.9,16.5-27.9,15.2-10.7-1.2-19.7-6.9-23.8-17.7-1.5-4-2.6-8.5-2.7-12.7-.2-11.2,6-19.1,15.2-24.5,3-1.8,3.6-3.7,3.6-6.7,0-20,0-40,0-60,0-9.6,5.1-15.3,14.7-14.9,13.6.6,27.3,0,41,.2,3.6,0,5.2-1.3,7.3-4.4,2.8-4.2,6.7-7.9,10.9-10.6,3-2,4-3.8,4-7.1-.1-8.3-.2-16.7,0-25,.1-6.4,4.6-10.7,10.5-10.5,5,.2,9.4,4.4,9.5,9.4.1,8.8.2,17.7,0,26.5,0,3,1,4.7,3.7,6.3,11,6.2,16.5,15.7,15.4,28.4-1.1,12.1-8.1,20.4-19.1,25-12.7,5.2-30.1-2.1-35.9-14.3-.7-1.5-2.8-3.2-4.3-3.2-11.7-.2-23.3,0-35,0-.6,0-1.2.4-2,.6h0ZM203.4,444.8c4.8,0,9.6-4.5,9.6-9.3,0-4.6-4.6-9-9.3-9.1-4.5,0-9.6,4.5-9.8,8.7-.1,4.4,4.9,9.6,9.4,9.6h0ZM203.5,156.2c-5.1,0-9.6,4.2-9.4,8.8.2,3.9,5.5,9.3,9.4,9.4,4.2,0,9.6-5.3,9.6-9.7,0-4.5-4.5-8.5-9.6-8.5h0ZM126,369c-5.7,0-8.7,3-8.6,8.6,0,4.7,4.4,9.7,8.7,9.7,4.3,0,9.2-5.2,9.3-9.9,0-5.3-3.4-8.5-9.4-8.5ZM203.4,270.7c4.6,0,9.5-4.2,9.7-8.6.2-4.6-4.6-9.5-9.3-9.6-4.5,0-9.5,4.4-9.7,8.7-.2,4.3,4.9,9.5,9.4,9.5h0ZM125.8,270.7c4.9,0,9.4-4,9.5-8.6.2-5.1-4-9.5-9.1-9.6-5.2-.1-8.7,3.4-8.9,8.9-.2,5.6,3.2,9.2,8.4,9.3Z"/>
          <path class="cls-1" d="M852.2,477.6c-2.8-49.5,42.4-90.6,88.1-90.9,52-.2,93.5,41.4,93.3,90.3-.2,50.5-40,91-92,91.4-47.2.4-91.8-40.9-89.4-90.9h0ZM988.7,478.2c.5-10.7-.8-20.3-6.1-29.1-7.2-12-17.3-20.1-31.2-22.1-11.4-1.6-22.6-1.2-33,5.4-8.2,5.2-14,12-18.3,20.7-5.9,12.1-5.9,24.6-4,37.2.9,5.8,3.4,11.7,6.6,16.7,10.5,16.4,25.9,23.5,45.2,21.5,11.1-1.2,20.5-6.2,28-14.4,9.5-10.3,13.8-22.6,12.7-35.9h0Z"/>
          <path class="cls-1" d="M1857.4,424.6c-4.9,2.7-9.8,5.4-14.8,8.2-5.1,2.8-10.1,5.6-15.2,8.3-3.7,1.9-6.7,2.1-10.4-1.3-13.9-12.8-30.9-15.2-48.8-12.9-18.3,2.3-31.8,11.7-39.9,28.8-9.3,19.8-5.5,44.7,10.3,59.7,5.7,5.3,12.3,9.7,20.2,11,6.3,1.1,12.7,2.2,19,2.3,16.4.2,30.6-5.5,41.7-18,.5-.6,1.3-1,2.2-1.8,10.3,6.9,20.8,13.8,31.1,21,1,.7,1.7,3.9,1,4.7-10.2,11.8-22.1,21.3-36.8,26.9-16.4,6.2-33.4,7.7-50.8,6.5-13.3-.9-26.1-4-38.1-9.8-13.1-6.4-23.4-16.3-32.2-28-16.5-22.1-19.3-47.3-14.2-73.2,4.1-21,16.2-38.1,33.6-51,24.2-18.1,51.9-21.6,80.8-18,23,2.9,42.2,13.7,57.7,31.1.7.7,1.1,1.7,1.6,2.5.4.7.8,1.3,1.8,2.9h0Z"/>
          <path class="cls-1" d="M2000.7,193.4h-167.6c1.6,9.1,2.3,17.8,4.8,26,3.4,10.8,9.1,20.6,17.3,28.7,8.2,8.1,17.3,14.1,28.5,17.5,11.3,3.5,22.8,3.7,34,1.6,18.2-3.5,34-12.2,45.2-27.6,3.4-4.7,6.2-9.8,9.7-14.4.7-1,3.5-1.5,4.6-.9,5.4,2.6,10.6,5.8,16.7,9.2-2.4,4.4-4.7,9.1-7.5,13.5-6.4,9.8-14.2,18.5-23.7,25.5-8.7,6.4-18.2,11-28.7,14-16.6,4.7-33.3,4.2-49.9,1.8-18.1-2.7-33.8-11.3-46.4-24.7-10.8-11.4-18.8-24.8-23.7-39.7-5.5-16.5-6.2-33.8-3-50.7,4.2-22.2,15-41.2,32.1-56.4,8.9-7.9,18.8-13.8,30.2-17.5,12.9-4.2,26.2-5.9,39.6-4.7,24.6,2.2,45.9,11.7,62.5,30.5,10.8,12.2,18.7,25.9,21.4,42.2,1.4,8.4,2.5,16.9,3.9,26.1h0ZM1972.7,172.4c-4.7-32.8-31.3-55.3-66.3-56.4-37.4-1.1-62.1,23.4-69.2,56.4h135.6Z"/>
          <path class="cls-1" d="M1068.5,133.1v-33.1h23.8v185h-23.5v-29.4c-.4-.2-.9-.4-1.3-.5-1.8,1.9-3.4,4-5.3,5.8-10.7,10.5-22.7,19.2-36.8,24.3-17.1,6.2-35.2,6.6-52.6,2.8-25.4-5.6-44.8-21.1-58.7-42.8-8.1-12.6-11.9-26.8-14-41.8-1.6-11.6,0-22.5,1.8-33.5,2.1-12.6,7.8-24,15.2-34.4,8.1-11.4,18-21,30-28,7.8-4.5,16.5-7.4,25.1-10.1,5.4-1.7,11.3-2.5,17.1-2.8,33.4-1.5,58.8,11.7,79.2,38.7h0ZM1069.7,191.6c.6-18.9-5.6-36.2-18.7-51.1-10.4-11.9-23.2-19.9-38.8-22.8-8.7-1.6-17.3-2.6-26.5-.7-10.7,2.2-20.7,5.6-29.6,11.8-9.9,6.9-17.3,15.9-23.2,26.5-6.5,11.8-9.2,24.4-9.6,37.3-.3,7.5,2.3,15.2,4.2,22.6,3.8,14.8,12.3,26.7,23.8,36.6,10.1,8.6,21.8,14.1,34.9,15.9,10.1,1.4,20,.9,30-2,10.5-3,19.9-7.8,28.1-14.8,17.8-15.3,25.8-35,25.3-59.2h0Z"/>
          <path class="cls-1" d="M1411.4,130.7v-30.9h23.2v185.2h-23.2v-29.2c-.4-.2-.8-.4-1.2-.5-2.6,2.6-5.3,5.1-7.9,7.7-8.9,9.1-19.5,15.6-31.2,20.7-17.8,7.7-36.3,7.7-54.6,4.3-21.5-3.9-38.7-16.4-52.5-33.3-9.1-11.2-15.3-23.8-18.7-37.9-3.7-15.1-4.1-30.2-1.2-45,5-25.1,18.6-45.2,39.7-60.1,11.5-8.1,23.8-14.3,38.2-15.4,6.9-.6,13.8-2,20.7-1.7,23.5,1.2,43.6,10.4,59.7,27.8,2.7,2.9,5.4,6,8.1,9,.4-.2.7-.4,1.1-.5h0ZM1266.4,199.9c-.3,11.5,6.6,28.8,19.2,43.3,13.9,16,31.7,25,53.4,25.1,14.6,0,27.7-4.1,40.2-11.8,13.3-8.1,22.8-19.3,28-33.4,4.7-12.6,6.6-25.8,5-39.7-2-16.7-7.7-31-18.7-43.4-10.3-11.5-22.8-19.4-38.1-22.3-8.7-1.6-17.3-2.5-26.4-.8-12.6,2.3-24.1,6.5-33.7,14.4-18.8,15.5-28.5,35.8-28.8,68.6h0Z"/>
          <path class="cls-1" d="M1488.8,285.3V99.9h23.4v29.6c.4.2.8.5,1.2.7,1.8-2,3.6-3.9,5.4-5.9,9.8-11,21.2-19.8,35.2-24.9,10.9-4,22-6.1,33.5-4.9,23.1,2.5,41,13.4,52,34.4,5.9,11.2,8.7,23.4,8.9,36,.5,39.1.5,78.3.7,117.5,0,.8-.2,1.6-.3,2.7h-22.5v-7.3c0-25.7.2-51.3,0-77-.2-13.9-.8-27.9-2.2-41.8-1.5-15.1-7.7-28.1-21.2-36.5-2-1.3-4.2-2.7-6.5-3.1-8.8-1.8-17.3-5.7-26.6-2.6-4.8,1.6-9.9,2-14.7,3.7-12.7,4.5-22.1,13.3-29.8,24.1-9.6,13.5-12.2,28.9-12.4,44.9-.2,29.8-.2,59.6-.3,89.5,0,4.3-2.2,6.4-6.6,6.4h-17.1Z"/>
          <path class="cls-1" d="M2186.1,564.3v-239.4h43.5v239.4h-43.5Z"/>
          <path class="cls-1" d="M1617.4,564.2h-43.5v-173.4h37.4v17.5c14.1-20.2,32.2-26,55.7-17.6-4.7,12.6-9.2,24.4-13.8,36.7-2.5-1.1-4.6-2.4-6.8-3-9.9-2.7-16,.5-22.1,11.1-4.8,8.4-6.4,17.9-6.4,27.5-.2,31.3-.3,62.6-.4,94v7.2h0Z"/>
          <path class="cls-1" d="M1720.9,120.3c-9.8,0-18.6-.2-27.4,0-4.2.1-5.7-1.6-5.6-5.5.1-3.5.2-7,0-10.5-.2-3.8,1.5-4.9,5-4.8,9,.2,17.9,0,27.5,0V31.3h24v68.2h38v20.7h-37.7v164.8h-23.9V120.3h0Z"/>
          <path class="cls-1" d="M1936.1,564.3h-42.5v-173.6h42.5v173.6Z"/>
          <path class="cls-1" d="M1161.1,125.1c8.9-11.6,17.7-21.3,30-26.9,12.1-5.5,24.1-5.4,35.7,1.2.8.5,1.4,2.9,1,3.8-2.8,4.8-5.9,9.6-9.3,14.1-.7.9-3.2,1.2-4.5.7-8.4-3.2-16.1-2.2-23.9,2.2-7.2,4-12.7,9.4-16.9,16.5-8,13.5-11.4,28.2-11.6,43.7-.4,32.2-.5,64.3-.7,96.5,0,8.4,0,8.4-8.6,8.4s-8.3-.2-12.5,0c-3.3.2-4.3-1-4.3-4.3.2-12.7,0-25.3,0-38V99.6c7.8,0,15.4-.1,23,.2.8,0,2.2,2.7,2.2,4.2.2,6.6,0,13.2,0,21.1h0Z"/>
          <path class="cls-1" d="M1914.7,321.1c15.8-1.4,28.1,13.2,27.9,27.1-.2,15.1-13.1,27.3-27.9,27.2-13.7-.1-27.7-11.8-27.5-28.2.2-13.7,12.4-27.5,27.6-26.1h0Z"/>
          <path class="cls-1" d="M420.2,291.2c-7.5.1-13.2-4.1-13.6-9.1-.5-6.1,3.4-10.5,10.3-11.3,13.7-1.4,21.8-9.9,27.3-21.5,1.7-3.6,1.4-8.1,3.1-11.8,2.2-4.8,7.2-6.6,11.3-5.2,3.4,1.2,7.4,7,7,10.8-1.6,14.7-7.9,26.9-19.5,36.4-8.1,6.6-17.5,9.6-26,11.5h0Z"/>
          <path class="cls-1" d="M433.5,193.8c-18.5-1.9-30.7-11.3-39.5-25.6-4.2-6.8-6.5-14.3-6.2-22.4.1-5.7,2.8-9.2,7.7-9.9,5.3-.8,9.2,1.6,11,6.7,2.2,6.1,3.7,12.6,7,18.1,5.2,8.6,14,12.5,23.8,13.9,3.9.6,6.9,2.2,8,6.1,1.2,4.4.8,9-3.4,11.4-2.6,1.5-6.3,1.4-8.4,1.7h0Z"/>
          <path class="cls-1" d="M465.7,393.8c.1,7.6-3.8,12-8.9,12.5-6.7.6-10.2-1.9-11.5-10.5-.8-5-2.1-9.4-4.9-13.5-6-8.8-14.7-12.8-25-14.6-6.7-1.2-9.7-5.8-8.6-11.6.9-4.7,7-8.3,12.9-7.7,20.6,2.1,33.8,14.3,42.6,32,2.3,4.6,2.7,10.2,3.5,13.4h0Z"/>
          <path class="cls-1" d="M355.7,87.7c9.1-1.3,13,4.4,12.1,11.2-.5,4.2-2.7,6.3-6.6,7.5-5.3,1.5-10.9,2.7-15.6,5.4-7.9,4.6-13.7,11.2-15,20.9-.4,3.2-1.4,6.6-3.1,9.2-2.5,3.8-6.8,4.8-11,3.1-4-1.6-6.9-4.6-6.6-9.4,1.2-18.6,10.2-32.4,26.1-41.8,6.1-3.6,12.5-6.7,19.8-6.2h0Z"/>
          <path class="cls-1" d="M309.8,375.8c1.4-14.7,8.1-26.6,19.5-35.8,6.6-5.3,13.9-8.9,22.6-10,4.1-.5,7.7-1.9,11.8.5,4.9,2.8,4.5,7.1,4,11.3-.5,4-3.2,6.5-7.2,6.8-13.6,1-22.8,8.4-28.6,20.2-1.8,3.6-1.7,8-3.1,11.8-2,5.5-6.4,8.2-10.9,6.8-4.2-1.3-8.8-5.4-8.1-11.5h0Z"/>
          <path class="cls-1" d="M355.3,271.2c-17.1-2.5-30.3-10.9-39-26-3.8-6.6-6.4-13.7-6.5-21.5,0-5.2,2.9-9.2,7.5-10.1,5.6-1.1,9.4.9,11.5,6.6,1.7,4.9,2.6,10.2,5,14.7,4.2,8,10.5,13.9,20,15.5,3.5.6,7.3,1.3,10.3,3.1,4.6,2.6,4.5,7.6,3.3,12-1,3.8-4,5.8-8.1,5.8h-4Z"/>
          <path class="cls-1" d="M361.9,426.1c17.5,1.7,29.9,11,39,25.8,4.1,6.6,5.5,13.6,6,21,.4,6.4-3.1,10.8-8.5,11.1-6.6.4-10.1-3.2-11-10-1.6-12.4-8.1-21.3-19.8-26-2.3-.9-4.6-2.1-6.9-2.3-8.4-.7-11.9-4-11.8-10.9.1-5.2,4.8-9.9,13-8.7h0Z"/>
        </g>
      </g>
    </g>
  </g>
</svg>