<svg xmlns="http://www.w3.org/2000/svg" xmlns:xlink="http://www.w3.org/1999/xlink" width="175.33" height="35.931" viewBox="0 0 175.33 35.931">
  <defs>
    <clipPath id="clip-path">
      <rect id="Rect치ngulo_1318" data-name="Rect치ngulo 1318" width="175.33" height="35.931" fill="#dbc16a"/>
    </clipPath>
  </defs>
  <g id="Grupo_3908" data-name="Grupo 3908" transform="translate(0 0)">
    <g id="Grupo_3907" data-name="Grupo 3907" transform="translate(0 0)" clip-path="url(#clip-path)">
      <path id="Trazado_1568" data-name="Trazado 1568" d="M85.27,69.607a.451.451,0,0,0-.451.451A1.617,1.617,0,1,1,83.2,68.4a.451.451,0,0,0,0-.9,2.556,2.556,0,1,0,2.518,2.556.451.451,0,0,0-.451-.451" transform="translate(-52.268 -43.728)" fill="#dbc16a"/>
      <path id="Trazado_1569" data-name="Trazado 1569" d="M59.546,32.331a5.576,5.576,0,0,0,10.908,1.631,5.573,5.573,0,0,0,5.284-6.374A5.578,5.578,0,0,0,74.48,16.994a5.58,5.58,0,0,0-4-6.8,5.577,5.577,0,1,0-10.93-1.564V32.331m.9-3.976a2.568,2.568,0,0,0,1.654.6,2.518,2.518,0,1,0,0-5.035.451.451,0,1,0,0,.9,1.617,1.617,0,1,1-1.654,1.616V17.806a2.138,2.138,0,0,0,3.37-1.687.451.451,0,1,0-.9-.026,1.238,1.238,0,0,1-2.469.09V8.626a4.674,4.674,0,1,1,7.979,3.305.451.451,0,0,0,.637.637,5.57,5.57,0,0,0,1.087-1.531,4.676,4.676,0,0,1,2.37,7.719.451.451,0,1,0,.663.611,5.57,5.57,0,0,0,.994-1.51,4.675,4.675,0,0,1-.686,9.3.451.451,0,0,0,0,.9,5.611,5.611,0,0,0,1.376-.17,4.681,4.681,0,0,1-6.514,4.791.451.451,0,1,0-.36.826,5.519,5.519,0,0,0,1.524.419,4.676,4.676,0,0,1-9.071-1.593Z" transform="translate(-38.574 -1.976)" fill="#dbc16a"/>
      <path id="Trazado_1570" data-name="Trazado 1570" d="M72.272,39.291a2.621,2.621,0,0,0,1.744-3.265,1.721,1.721,0,1,1,3.315-.93.451.451,0,1,0,.868-.244,2.623,2.623,0,1,0-5.05,1.417l0,0v0a1.721,1.721,0,0,1-1.135,2.147c-.055.013-.111.028-.165.044a2.625,2.625,0,0,0-1.741,3.275.451.451,0,1,0,.862-.263,1.723,1.723,0,0,1,1.135-2.147c.055-.013.111-.028.165-.044" transform="translate(-45.342 -21.337)" fill="#dbc16a"/>
      <path id="Trazado_1571" data-name="Trazado 1571" d="M71.522,15.309a.451.451,0,0,0,.887.163A2.606,2.606,0,1,0,67.242,15v4.418a.451.451,0,1,0,.9,0V15a1.728,1.728,0,0,1,.6-1.313,1.709,1.709,0,0,1,2.774,1.625" transform="translate(-43.559 -8.017)" fill="#dbc16a"/>
      <path id="Trazado_1572" data-name="Trazado 1572" d="M84.147,54.96a1.713,1.713,0,0,1-1.34-.517.451.451,0,0,0-.645.629,2.626,2.626,0,0,0,3.83-.07,1.791,1.791,0,0,1,1.287-.544,1.875,1.875,0,0,1,1.287,3.19.451.451,0,1,0,.643.631,2.8,2.8,0,0,0,0-3.909,2.7,2.7,0,0,0-3.8-.056,1.853,1.853,0,0,1-1.258.646" transform="translate(-53.141 -34.693)" fill="#dbc16a"/>
      <path id="Trazado_1573" data-name="Trazado 1573" d="M71.782,82.976a.451.451,0,0,0-.64-.635,1.614,1.614,0,0,1-2.75-1.179V78.894a.45.45,0,0,0-.9,0v2.268a2.517,2.517,0,0,0,4.291,1.814" transform="translate(-43.721 -50.816)" fill="#dbc16a"/>
      <path id="Trazado_1574" data-name="Trazado 1574" d="M3.329,27.587a5.574,5.574,0,0,0,5.284,6.376,5.576,5.576,0,0,0,10.908-1.632V8.627A5.576,5.576,0,1,0,8.593,10.19a5.58,5.58,0,0,0-4.006,6.8A5.577,5.577,0,0,0,3.329,27.587m1.4-9.7v3.432a.777.777,0,0,0,.776.776H9.652a.777.777,0,0,0,.776-.776v-5.1a1.568,1.568,0,1,0-.9,0v4.973h-3.9c0-3.971.01-3.865-.025-3.966a4.663,4.663,0,0,1,3.651-6.254A.451.451,0,0,0,9.6,10.36,4.675,4.675,0,1,1,18.62,8.627V24.76H15.5a.419.419,0,0,1-.41-.426V21.428a1.568,1.568,0,1,0-.9,0v2.906A1.321,1.321,0,0,0,15.5,25.661H18.62v6.671a4.676,4.676,0,0,1-9.055,1.637h3.281a1.672,1.672,0,0,0,1.67-1.67V29.883a1.568,1.568,0,1,0-.9,0V32.3a.769.769,0,0,1-.768.768c-1.271,0-2.489,0-4,0a4.679,4.679,0,0,1-4.631-5.31H5.793a1.589,1.589,0,1,0,0-.9H3.917a4.675,4.675,0,0,1,.81-8.969M9.311,14.7a.667.667,0,1,1,.667.687.678.678,0,0,1-.667-.687m5.332,5.9a.688.688,0,1,1,.667-.687.678.678,0,0,1-.667.687M13.4,28.361a.667.667,0,1,1,.667.687.678.678,0,0,1-.667-.687M6.63,27.306a.667.667,0,1,1,.667.687.678.678,0,0,1-.667-.687" transform="translate(0 -1.976)" fill="#dbc16a"/>
      <path id="Trazado_1575" data-name="Trazado 1575" d="M33.7,14.452h2.43a.762.762,0,0,1,.761.761v5.2a1.568,1.568,0,1,0,.9,0v-5.2a1.664,1.664,0,0,0-1.662-1.662H33.7a.451.451,0,0,0,0,.9m3.641,6.8a.688.688,0,1,1-.667.687.678.678,0,0,1,.667-.687" transform="translate(-21.537 -8.778)" fill="#dbc16a"/>
      <path id="Trazado_1576" data-name="Trazado 1576" d="M141.829,15.557a7.8,7.8,0,0,1-3.111-.611,7.884,7.884,0,0,1-2.489-1.678,7.617,7.617,0,0,1-1.656-2.478,7.743,7.743,0,0,1-.589-3.011,7.743,7.743,0,0,1,.589-3.011,7.626,7.626,0,0,1,1.656-2.478A7.9,7.9,0,0,1,138.718.611,7.8,7.8,0,0,1,141.829,0a6.78,6.78,0,0,1,2.656.444A6.433,6.433,0,0,1,146.3,1.6V3.8q-.489-.355-1.1-.778a7.144,7.144,0,0,0-1.422-.745,5.273,5.273,0,0,0-1.945-.322,5.855,5.855,0,0,0-2.978.756,5.508,5.508,0,0,0-2.067,2.078,5.914,5.914,0,0,0-.755,2.989,5.852,5.852,0,0,0,.755,2.978,5.612,5.612,0,0,0,2.067,2.078,6.518,6.518,0,0,0,4.8.534,3.908,3.908,0,0,0,1.1-.545q.411-.311.656-.511l2.156.889a7.094,7.094,0,0,1-1.378,1.122,7.927,7.927,0,0,1-1.945.889,8.04,8.04,0,0,1-2.412.345m3.578-1V8.868h-4.4V7.09h6.557V13.2Z" transform="translate(-86.795 0)" fill="#dbc16a"/>
      <path id="Trazado_1577" data-name="Trazado 1577" d="M183.4,22.711a4.877,4.877,0,0,1-2.6-.722,5.227,5.227,0,0,1-1.878-2.011,6.143,6.143,0,0,1-.7-2.978,6.754,6.754,0,0,1,.7-3.178,5.057,5.057,0,0,1,1.922-2.056,5.275,5.275,0,0,1,2.734-.722,4.628,4.628,0,0,1,1.944.456,5.115,5.115,0,0,1,1.7,1.256V11.265h1.823V22.378H187.22V20.489a5.5,5.5,0,0,1-1.567,1.556,3.94,3.94,0,0,1-2.255.667m.289-1.778a3.208,3.208,0,0,0,1.822-.534,3.694,3.694,0,0,0,1.267-1.478,4.525,4.525,0,0,0,.444-2.122l-.022-2.134a5.846,5.846,0,0,0-1.478-1.356,3.371,3.371,0,0,0-1.811-.489,3.439,3.439,0,0,0-2.045.6,3.99,3.99,0,0,0-1.3,1.545A4.618,4.618,0,0,0,180.108,17a4.38,4.38,0,0,0,.444,1.967,3.57,3.57,0,0,0,1.256,1.433,3.339,3.339,0,0,0,1.878.534" transform="translate(-115.45 -7.154)" fill="#dbc16a"/>
      <path id="Trazado_1578" data-name="Trazado 1578" d="M219.678,11.265H221.5V22.377h-1.822Zm1.822,4.4V13.488a5.711,5.711,0,0,1,1.556-1.778,3.129,3.129,0,0,1,1.867-.667,2.875,2.875,0,0,1,1.156.222v2.111a3.209,3.209,0,0,0-.689-.311,2.45,2.45,0,0,0-.734-.111,2.321,2.321,0,0,0-1.834.8,11.183,11.183,0,0,0-1.322,1.911" transform="translate(-142.307 -7.154)" fill="#dbc16a"/>
      <path id="Trazado_1579" data-name="Trazado 1579" d="M247.446,22.711a4.878,4.878,0,0,1-2.6-.722,5.227,5.227,0,0,1-1.878-2.011,6.143,6.143,0,0,1-.7-2.978,6.753,6.753,0,0,1,.7-3.178,5.057,5.057,0,0,1,1.922-2.056,5.275,5.275,0,0,1,2.734-.722,4.628,4.628,0,0,1,1.944.456,5.114,5.114,0,0,1,1.7,1.256V11.265h1.823V22.378h-1.823V20.489a5.5,5.5,0,0,1-1.567,1.556,3.94,3.94,0,0,1-2.255.667m.289-1.778a3.208,3.208,0,0,0,1.822-.534,3.7,3.7,0,0,0,1.267-1.478,4.526,4.526,0,0,0,.444-2.122l-.022-2.134a5.846,5.846,0,0,0-1.478-1.356,3.37,3.37,0,0,0-1.811-.489,3.439,3.439,0,0,0-2.044.6,3.99,3.99,0,0,0-1.3,1.545A4.618,4.618,0,0,0,244.157,17a4.38,4.38,0,0,0,.444,1.967,3.57,3.57,0,0,0,1.256,1.433,3.339,3.339,0,0,0,1.878.534" transform="translate(-156.941 -7.154)" fill="#dbc16a"/>
      <path id="Trazado_1580" data-name="Trazado 1580" d="M283.727,11.265h1.822V22.378h-1.822Zm7.734,11.112-.022-6.6a3.346,3.346,0,0,0-.633-2.2,2.4,2.4,0,0,0-1.945-.756,2.938,2.938,0,0,0-1.767.656A7.9,7.9,0,0,0,285.549,15V13.021a6.169,6.169,0,0,1,.911-.9,5.5,5.5,0,0,1,1.256-.767,3.552,3.552,0,0,1,1.456-.311,4.305,4.305,0,0,1,2.067.5,3.66,3.66,0,0,1,1.489,1.511,5.24,5.24,0,0,1,.555,2.545v6.778Z" transform="translate(-183.798 -7.154)" fill="#dbc16a"/>
      <path id="Trazado_1581" data-name="Trazado 1581" d="M323.318,17.234a3.249,3.249,0,0,1-1.622-.389,2.675,2.675,0,0,1-1.067-1.1,3.45,3.45,0,0,1-.378-1.644V7.5h-2.134V6.966a4.251,4.251,0,0,0,1.823-1.612,12.181,12.181,0,0,0,1.289-2.767h.845v3.2h3.578V7.5h-3.578v6.512a1.374,1.374,0,0,0,.456,1.089,1.737,1.737,0,0,0,1.189.4,4.124,4.124,0,0,0,1.211-.167,3.992,3.992,0,0,0,.878-.367v1.6a2.754,2.754,0,0,1-1.044.511,5.833,5.833,0,0,1-1.445.156" transform="translate(-206.076 -1.677)" fill="#dbc16a"/>
      <path id="Trazado_1582" data-name="Trazado 1582" d="M352.692,22.711a5.8,5.8,0,0,1-2.322-.456,5.708,5.708,0,0,1-3.056-3.134,5.952,5.952,0,0,1-.422-2.234,6.248,6.248,0,0,1,.689-2.911,5.568,5.568,0,0,1,1.9-2.134,4.9,4.9,0,0,1,2.767-.8,5.262,5.262,0,0,1,2.845.711,4.444,4.444,0,0,1,1.7,1.934,6.476,6.476,0,0,1,.567,2.756v1.089H348.6V15.977h6.956a3.6,3.6,0,0,0-.611-1.778,3.231,3.231,0,0,0-1.211-1.034,3.381,3.381,0,0,0-1.489-.344,3.049,3.049,0,0,0-1.845.567,3.719,3.719,0,0,0-1.2,1.489,4.77,4.77,0,0,0-.422,2.011,4.258,4.258,0,0,0,.478,1.989,3.825,3.825,0,0,0,1.367,1.489,3.76,3.76,0,0,0,2.067.567,4.31,4.31,0,0,0,2.234-.611,8.277,8.277,0,0,0,1.744-1.345v1.978a4.317,4.317,0,0,1-.922.789,6.144,6.144,0,0,1-1.4.689,4.956,4.956,0,0,1-1.656.278" transform="translate(-224.716 -7.154)" fill="#dbc16a"/>
      <path id="Trazado_1583" data-name="Trazado 1583" d="M141.981,69.423a8.359,8.359,0,0,1-2.923-.522,7.885,7.885,0,0,1-2.533-1.523,7.22,7.22,0,0,1-1.778-2.445,8.577,8.577,0,0,1,0-6.578,7.223,7.223,0,0,1,1.778-2.445,7.891,7.891,0,0,1,2.533-1.523,8.359,8.359,0,0,1,2.923-.522,6.839,6.839,0,0,1,2.178.334,5.214,5.214,0,0,1,1.756.978V59.2a7.6,7.6,0,0,0-1.122-.8,4.912,4.912,0,0,0-1.167-.478,5.823,5.823,0,0,0-1.489-.167,3.555,3.555,0,0,0-1.856.511,4.022,4.022,0,0,0-1.389,1.389,3.976,3.976,0,0,0,0,3.978,4.013,4.013,0,0,0,1.389,1.389,3.552,3.552,0,0,0,1.856.511,4.315,4.315,0,0,0,.967-.1,3.223,3.223,0,0,0,.755-.267,1.713,1.713,0,0,0,.5-.367l3.067,2.312a7.254,7.254,0,0,1-1.533,1.245,7.419,7.419,0,0,1-1.822.789,7.628,7.628,0,0,1-2.089.278m1.867-.978V61.111h3.578v6Z" transform="translate(-86.864 -34.894)" fill="#dbc16a"/>
      <path id="Trazado_1584" data-name="Trazado 1584" d="M183.854,75.964a6.114,6.114,0,0,1-2.289-.444,6.665,6.665,0,0,1-2-1.245,5.972,5.972,0,0,1-1.411-1.9,5.827,5.827,0,0,1,0-4.823,5.974,5.974,0,0,1,1.411-1.9,6.671,6.671,0,0,1,2-1.244,6.113,6.113,0,0,1,4.579,0,6.68,6.68,0,0,1,2,1.244,5.99,5.99,0,0,1,1.411,1.9,5.831,5.831,0,0,1,0,4.823,5.988,5.988,0,0,1-1.411,1.9,6.674,6.674,0,0,1-2,1.245,6.117,6.117,0,0,1-2.289.444m0-3.667a2.668,2.668,0,0,0,.911-.178,1.771,1.771,0,0,0,.845-.689,3.225,3.225,0,0,0,0-2.945,1.791,1.791,0,0,0-.845-.678,2.684,2.684,0,0,0-.911-.178,2.726,2.726,0,0,0-.9.178,1.78,1.78,0,0,0-.855.678,3.225,3.225,0,0,0,0,2.945,1.76,1.76,0,0,0,.855.689,2.709,2.709,0,0,0,.9.178" transform="translate(-115.069 -41.435)" fill="#dbc16a"/>
      <path id="Trazado_1585" data-name="Trazado 1585" d="M226.795,67.993a3.4,3.4,0,0,1-2.089-.645,4,4,0,0,1-1.289-1.578V67.66h-3.822v-16h3.822V57.37a4.34,4.34,0,0,1,1.412-.989,4.175,4.175,0,0,1,1.744-.389,4.858,4.858,0,0,1,2.545.7,5.028,5.028,0,0,1,1.867,2.034,6.91,6.91,0,0,1,.7,3.245A7.4,7.4,0,0,1,231,65.359a4.665,4.665,0,0,1-1.811,1.989,4.723,4.723,0,0,1-2.389.645m-1.133-3.867a1.916,1.916,0,0,0,1.067-.289,2.032,2.032,0,0,0,.7-.778,2.317,2.317,0,0,0,.255-1.089,2.541,2.541,0,0,0-.244-1.111,2.119,2.119,0,0,0-.678-.822,1.654,1.654,0,0,0-.989-.311,3.058,3.058,0,0,0-1.233.267,5.172,5.172,0,0,0-1.122.667v1.089a2.288,2.288,0,0,0,.367,1.345,2.333,2.333,0,0,0,.889.778,2.255,2.255,0,0,0,.989.256" transform="translate(-142.253 -33.464)" fill="#dbc16a"/>
      <path id="Trazado_1586" data-name="Trazado 1586" d="M263.229,75.964a4.662,4.662,0,0,1-2.378-.645,4.752,4.752,0,0,1-1.811-1.989,7.3,7.3,0,0,1-.7-3.389,6.909,6.909,0,0,1,.7-3.245,5.026,5.026,0,0,1,1.867-2.034,4.855,4.855,0,0,1,2.545-.7,4.18,4.18,0,0,1,1.745.389,4.349,4.349,0,0,1,1.411.989V64.3h3.822V75.63h-3.822V73.741a4,4,0,0,1-1.289,1.578,3.4,3.4,0,0,1-2.089.645m1.133-3.867a2.228,2.228,0,0,0,1-.256,2.364,2.364,0,0,0,.878-.778,2.291,2.291,0,0,0,.367-1.345V68.629a4.693,4.693,0,0,0-1.1-.667,3.111,3.111,0,0,0-1.256-.267,1.654,1.654,0,0,0-.989.311,2.119,2.119,0,0,0-.678.822,2.541,2.541,0,0,0-.244,1.111,2.317,2.317,0,0,0,.255,1.089,2,2,0,0,0,.711.778,1.927,1.927,0,0,0,1.055.289" transform="translate(-167.352 -41.435)" fill="#dbc16a"/>
      <rect id="Rect치ngulo_1317" data-name="Rect치ngulo 1317" width="3.823" height="16.002" transform="translate(106.189 18.194)" fill="#dbc16a"/>
      <path id="Trazado_1587" data-name="Trazado 1587" d="M337.911,54.813h12.246v3.445H337.911Zm4.045,0h4.156V69.7h-4.156Z" transform="translate(-218.898 -35.508)" fill="#dbc16a"/>
      <path id="Trazado_1588" data-name="Trazado 1588" d="M379.305,64.5h3.823V75.836h-3.823Zm3.823,5.512V66.524a8.011,8.011,0,0,1,1.189-1.578,2.572,2.572,0,0,1,2.723-.467V68.7a3.366,3.366,0,0,0-.7-.278,3.278,3.278,0,0,0-.856-.1,2.183,2.183,0,0,0-1.378.467,3.5,3.5,0,0,0-.978,1.223" transform="translate(-245.713 -41.64)" fill="#dbc16a"/>
      <path id="Trazado_1589" data-name="Trazado 1589" d="M412.052,76.577a6.477,6.477,0,0,1-2.8-.578,4.53,4.53,0,0,1-1.922-1.667,4.745,4.745,0,0,1-.7-2.622v-6.8h3.845v5.779a3.038,3.038,0,0,0,.367,1.689,1.641,1.641,0,0,0,2.422,0,3.038,3.038,0,0,0,.367-1.689V64.909h3.845v6.8a4.746,4.746,0,0,1-.7,2.622A4.533,4.533,0,0,1,414.852,76a6.479,6.479,0,0,1-2.8.578" transform="translate(-263.414 -42.048)" fill="#dbc16a"/>
      <path id="Trazado_1590" data-name="Trazado 1590" d="M448,75.964a7.556,7.556,0,0,1-1.611-.167,7.707,7.707,0,0,1-1.433-.455,6.751,6.751,0,0,1-1.178-.645V71.719a7.262,7.262,0,0,0,1.178.589,9.781,9.781,0,0,0,1.278.411,4.911,4.911,0,0,0,1.167.156,2.153,2.153,0,0,0,.945-.156.571.571,0,0,0,.3-.556.521.521,0,0,0-.356-.478,9.94,9.94,0,0,0-1.022-.389l-1.133-.355a3.39,3.39,0,0,1-1.778-5.2,4.06,4.06,0,0,1,1.7-1.311,6,6,0,0,1,2.411-.467,6.338,6.338,0,0,1,2.056.322,4.051,4.051,0,0,1,1.522.878v3a10.841,10.841,0,0,0-1.311-.678,3.886,3.886,0,0,0-1.578-.322,2.035,2.035,0,0,0-.944.211.692.692,0,0,0-.411.655.516.516,0,0,0,.244.467,3.67,3.67,0,0,0,.956.334l.689.178a4.4,4.4,0,0,1,2.234,1.167,2.865,2.865,0,0,1,.722,2.011,3.148,3.148,0,0,1-.655,1.967,4.4,4.4,0,0,1-1.711,1.333,5.464,5.464,0,0,1-2.278.478" transform="translate(-287.45 -41.435)" fill="#dbc16a"/>
      <path id="Trazado_1591" data-name="Trazado 1591" d="M478.469,71.263a4.184,4.184,0,0,1-1.989-.489,3.851,3.851,0,0,1-1.489-1.4,4.084,4.084,0,0,1-.567-2.2V62.6h-1.6V60.262a3.149,3.149,0,0,0,1.767-1.2,8.511,8.511,0,0,0,1.167-2.356h2.489V59.6h3.2v3h-3.2v3.178a2.293,2.293,0,0,0,.322,1.3,1.227,1.227,0,0,0,1.1.478,2.306,2.306,0,0,0,1.1-.234q.433-.234.855-.478v3.2a2.843,2.843,0,0,1-1.2.855,4.87,4.87,0,0,1-1.956.367" transform="translate(-306.295 -36.734)" fill="#dbc16a"/>
    </g>
  </g>
</svg>
