<?xml version="1.0" encoding="UTF-8"?>
<svg id="Capa_2" xmlns="http://www.w3.org/2000/svg" viewBox="0 0 2229.57 582.65">
  <g id="Capa_1-2" data-name="Capa_1">
    <g>
      <path d="M403.2,532.6c-1.66,3.21-3.59,6.86-5.45,10.55-6.83,13.48-17.59,23.58-30.83,29.64-10.34,4.73-20.92,10.01-33.31,9.85-9.78-.13-17.78-4.69-26.41-7.52-5.99-1.97-11.36-6.07-16.72-9.65-5.12-3.41-6.54-8.98-3.57-13.23,2.86-4.08,8.04-7,13.67-2.89,8.94,6.53,19.06,10.52,29.99,11.49,5.46.48,11.24-.51,16.63-1.81,14.38-3.47,25.15-11.8,32.59-24.78,4.16-7.26,5.9-15.08,8.02-22.97.88-3.28,4.22-6.63,7.32-8.4,3.78-2.15,7.15,1.33,10.09,3.53,5.18,3.87,9.62,8.95,15.2,11.98,7.7,4.17,15.88,5.55,25.06,2.5,9.18-3.05,16.86-7.4,22.07-15.41,6.28-9.64,10.28-19.94,5.15-31.51-2.5-5.64-5.24-11.17-8-16.69-2.55-5.11-.1-11.26,5.41-12.55,2.36-.55,4.98-.55,7.41-.24,18.81,2.43,33.07-5.04,41.64-21.35,8.33-15.84,4.14-35.21-12.05-47.33-2.71-2.02-5.61-3.94-8.71-5.24-4.2-1.77-6.18-4.53-6.26-9.05-.08-4.65,2-7.42,6.03-9.74,10.81-6.21,18.19-15.21,22.46-27.21,2.99-8.4,3.27-16.87,1.5-24.95-2.2-10.03-7.44-19.04-15.67-25.81-2.13-1.75-4.32-3.42-6.48-5.14-4.95-3.94-5.81-8.32-3.48-14.01,2.71-6.61,6.24-13.25,7.08-20.16.94-7.77-1.56-15.61-5.99-22.47-4.86-7.53-11.94-12.3-19.84-16.07-5.98-2.86-7.64-9.33-3.73-14.66,6.38-8.69,11.49-17.9,10.06-29.19-1.86-14.67-8.82-25.82-22.98-31.66-3.89-1.6-7.75-3.25-11.66-4.81-3.87-1.55-4.88-4.56-4.7-8.42.21-4.49.2-8.99.22-13.49.06-14.96-14.39-29.84-27.86-33.61-12.25-3.43-22.26-.33-32.12,5.96-10.23,6.52-16.91-1.03-17.79-8.76-1.66-14.66-9.71-25.33-22.36-31.94-6.1-3.19-13.47-5.52-20.26-5.49-12.98.06-24.62,5.26-31.95,16.5-4.76,7.3-7.96,15.63-11.67,23.58-.58,1.25-.24,2.96-.24,4.46,0,148.2-.04,296.4.04,444.6.01,25.43-10.96,45.01-31.67,58.85-7.75,5.18-17.32,7.56-25.72,11.86-7.99,4.09-16.34,2.92-24.41,2.07-5.73-.6-11.27-3.6-16.74-5.89-13.36-5.6-24.56-14.13-33-25.95-2.81-3.94-5.15-8.32-7.03-12.78-1.86-4.41-2.72-4.94-7.09-2.5-11.09,6.2-23.11,7.99-35.53,6.5-20.35-2.44-34.95-13.24-44.78-31.2-6.66-12.15-6.79-24.9-5.26-38.02.3-2.61,2.02-6.03.94-7.56-1.07-1.52-4.97-.78-7.42-1.63-15.76-5.48-28.29-14.54-36.51-29.77-6.04-11.19-6.83-22.73-5.99-34.69.78-11.18,6.41-20.44,13.27-28.95,1.84-2.28,4.15-4.18,6.3-6.2,1.79-1.68,2.62-3.04.32-5.23-17.92-16.98-23.15-38.38-19.25-61.8,2.42-14.55,10.45-26.89,21.41-37.08,1.02-.95,1.96-3.32,1.48-4.34-3.49-7.48-5-15.23-4.73-23.46.59-18.28,8.36-32.86,22.45-44.2,2.98-2.4,4.19-3.96,2.22-8.4-5.93-13.39-6.32-27.26-2-41.53,4.46-14.74,13.38-25.83,26.89-32.05,8.33-3.83,8.35-10.37,9.48-16.87,3.46-19.8,14.2-33.76,31.9-43.15,12.47-6.62,25.41-6.16,38.65-4.79.92.1,1.81.67,2.67,1.1,5.04,2.51,6.27,1.8,8.7-3.24,5.61-11.63,13.48-21.33,24.64-28.25C198.03,1.83,212.21-1.38,227.23.81c12.24,1.78,23.15,7.19,31.94,16.12,3.74,3.8,3.53,9.25.09,12.99-3.82,4.16-7.56,4.53-12.59,1.28-3.53-2.27-6.91-4.88-10.67-6.66-15.28-7.24-29.99-5.65-43.48,4.3-10.18,7.51-16.23,17.58-17.42,30.56-.81,8.82-10.01,11.69-18.04,6.25-6.75-4.58-14.27-7.74-22.48-7.12-15.05,1.14-29.29,10.48-34.95,25.95-2.6,7.11-2.09,13.99-1.86,21,.25,7.6-.74,10.01-10.12,12.57-12.2,3.34-22.64,12.44-27.29,26.17-4.85,14.33.37,25.65,8.21,36.68,3.71,5.21,2.43,12.11-3.29,15.01-8.37,4.25-16.21,9.01-20.9,17.67-5.75,10.62-6.69,21.53-2.21,32.75,1.51,3.78,3.7,7.29,5.5,10.95,1.93,3.92-1.17,9.21-6.93,13.23-14.92,10.42-22.31,24.99-20.85,43.04,1.36,16.69,9.86,29.63,24.5,38.14,3.79,2.2,6.97,4.89,6.86,9.45-.11,4.6-2.7,7.48-7.18,9.58-12.81,5.99-21.25,15.93-24.05,30.04-2.18,10.97,2.99,26.09,13.08,34.59,9.74,8.2,20.78,10.94,33.17,9,4.77-.75,9.29.05,11.69,4.42,2.21,4.01,1.14,8-1.7,11.99-5.07,7.11-9.17,15.11-8.36,24.06,1.29,14.24,7.51,26.1,20.92,32.49,5.75,2.74,12.36,4.84,18.65,5.03,10.95.32,20.06-5.1,27.76-12.76.69-.69,1.23-1.56,1.98-2.17,3.02-2.43,5.85-5.74,10.33-4.25,5.18,1.72,8.23,5.62,8.57,10.98.62,9.53,4.42,17.83,9.98,25.16,8.67,11.41,19.92,18.5,34.59,20.75,7.84,1.2,15.09.26,22.31-1.52,12.92-3.18,22.85-10.81,30.02-22.13,6.49-10.24,8.79-21.38,8.78-33.36-.08-145.53.03-291.06-.13-436.6-.02-20.49,8.79-36.61,22.84-50.32,13.83-13.5,31.1-18.39,49.72-15.18,19.44,3.36,35.09,13.64,44.99,31.37,1.35,2.42,2.42,5.01,3.38,7.61,1.45,3.89,4.34,3.06,7.04,2.17,11.82-3.93,23.45-3.65,35.37.05,12.71,3.94,22.66,11.47,29.79,22.29,3.79,5.74,6.17,12.54,8.36,19.14,1.53,4.62,1.43,9.77,2.56,14.56.38,1.61,2.03,3.48,3.57,4.17,14.24,6.39,24.86,16.4,30.13,31.17,2.42,6.77,4.18,14.03,4.64,21.18.64,9.85-2.66,19.17-7.29,28.58,24.46,19.2,33.11,43.35,21.65,73.14,4.91,6.41,10.27,12.72,14.81,19.59,3.01,4.56,5.62,9.7,7,14.95,1.82,6.94,2.86,14.22,3.15,21.4.46,11.34-4.49,21.41-9.7,31.04-2.89,5.35-7.1,10.12-11.35,14.55-2.09,2.18-1.73,3.28.02,4.66,8.65,6.8,14,16.08,17.74,25.99,3.86,10.23,5.09,20.75,1.22,31.86-4.36,12.52-10.36,23.45-20.93,31.63-7.37,5.7-15.37,10.04-24.76,11.21-3.2.4-4.42.99-3.56,4.97,5.08,23.42-.02,44.6-19.34,60.64-15.05,12.49-32.42,14.83-50.79,11.47-6.09-1.11-11.71-4.74-18.74-7.72Z"/>
      <path d="M1333.51,564.29h-43.16c0-2,0-3.78,0-5.55,0-23.83.29-47.67-.12-71.5-.22-12.59-.71-25.32-2.78-37.7-3.43-20.54-19.23-28.26-40.02-20.59-15.11,5.58-21.34,18.24-22.61,33.24-1.32,15.53-1.77,31.15-2.06,46.74-.33,18.3-.08,36.61-.08,55.26h-43.15c0-1.88,0-3.66,0-5.43-.02-27.67.2-55.34-.18-83-.12-9.07-.73-18.38-2.94-27.13-5.93-23.53-27.73-27.65-44.76-17.67-11.46,6.72-16.54,17.93-18.2,31.18-3.99,31.71-.87,63.51-1.92,95.25-.07,2.14,0,4.27,0,6.77h-42.8v-173.32h42.85v18.21c6.58-4.66,12.39-9.17,18.59-13.06,8.16-5.13,17.07-8.4,26.85-8.66,10.58-.29,21.19-1.14,31.31,3.36,10.39,4.62,18.8,11.5,24.77,21.15,2.86,4.61,3.17,4.7,6.69.79,9.12-10.13,19.38-18.38,32.83-22.56,13.31-4.14,26.92-4.74,39.78-1.24,20.34,5.52,34.96,18.29,38.17,40.53,1.55,10.77,2.66,21.7,2.79,32.57.37,32.66.15,65.34.17,98,0,1.3,0,2.6,0,4.37Z"/>
      <path d="M823.89,524.37c-13.35,13.91-28.02,25.14-44.6,33.56-6.94,3.52-14.75,5.75-22.42,7.31-10.8,2.19-21.84,4.37-32.79,4.39-11.44.01-22.96-2.12-34.29-4.15-7.02-1.26-13.86-3.81-20.62-6.24-14.54-5.23-26.66-14.39-37.45-25.1-12.43-12.35-21.44-27.15-27.11-43.75-6.52-19.09-8.15-38.91-5.99-58.83,2.09-19.28,8.26-37.14,19.35-53.54,12.07-17.85,28.03-30.83,46.81-40.22,9.79-4.89,20.87-7.3,31.48-10.44,14.29-4.23,28.96-3.63,43.48-1.93,12.8,1.5,25.09,5.09,37.04,10.39,13.06,5.79,24.89,13.16,35.56,22.49,4.4,3.85,8.32,8.24,12.86,12.78-7.46,7.12-14.25,13.65-21.1,20.11-2.43,2.29-5.64,4.03-7.38,6.73-2.23,3.47-4,2.28-5.8.33-9.97-10.79-22.19-18.37-35.29-24.56-3.94-1.86-8.4-2.84-12.73-3.61-6.64-1.19-13.37-2.54-20.08-2.62-27.95-.34-50.3,11.42-66.6,33.72-5.03,6.89-7.59,15.7-10.68,23.86-4.68,12.35-3.97,25.38-1.7,37.87,3.55,19.54,12.97,36.16,29.58,47.95,19.88,14.1,42.27,17.93,65.77,14.18,16.05-2.56,30.12-10.36,42.42-21.12,3.52-3.08,7.02-6.21,10.68-9.12.73-.58,2.71-.82,3.19-.32,9.46,9.78,18.78,19.69,28.41,29.87Z"/>
      <path d="M2145.98,564.35h-42.25v-17.85c-4.1,2.85-7.42,4.89-10.44,7.29-14.93,11.85-32.1,15.72-50.68,14.14-23.27-1.98-41.38-13.51-55.79-31.29-10.54-13.02-17.19-27.77-18.43-44.69-.54-7.4-2.02-14.88-1.43-22.18,2.27-27.85,13.13-51.71,35.9-68.74,10.37-7.75,22.27-13.23,35.69-13.63,11.39-.34,22.73-1.09,33.92,2.91,11.3,4.05,21.14,10.16,30.73,18.8v-18.29h42.77v173.53ZM2104.64,477.42c.5-.09,1.01-.18,1.51-.27-1.97-8.47-2.61-17.56-6.23-25.25-5.05-10.76-13.51-18.87-25.49-22.87-13.24-4.42-26.46-4.46-38.5,1.9-14.76,7.8-23.07,20.95-24.89,37.87-1.45,13.47-.31,26.77,7.24,38.11,10.44,15.69,25.45,23.64,44.81,21.67,11.51-1.17,21.22-6.14,28.93-14.67,9.31-10.3,13.56-22.52,12.62-36.49Z"/>
      <path d="M836.25,188.99c-2.85,0-4.63,0-6.4,0-22.5,0-45-.13-67.5.1-4.77.05-6.16-1.59-5.87-6.08.31-4.81.19-9.67.03-14.5-.11-3.37,1.12-4.82,4.62-4.81,32.67.07,65.34.06,98,.03,4.06,0,5.57,1.85,5.23,5.85-1.6,18.76-3.91,37.45-12.03,54.65-10.08,21.35-24.84,38.66-45.81,50.38-9.29,5.19-18.86,9.21-29.15,11.87-14.2,3.67-28.56,5.5-43.18,4.89-18.66-.77-36.78-3.75-54.42-10.62-25.04-9.75-44.38-26.27-59.68-47.73-7.54-10.58-12.87-22.4-16.91-35-6.24-19.45-6.97-39.2-4.17-58.87,2.5-17.54,8.8-34.12,18.73-49.27,7.3-11.15,15.54-21.21,25.67-29.82,10.27-8.72,21.64-15.54,34.08-20.7,11.9-4.93,24.05-8.71,37.02-9.31,11.24-.52,22.63-2.42,33.68-1.22,13.63,1.49,27.39,4.35,40.34,8.8,18.89,6.5,35.74,17.14,50.56,30.75,3.22,2.96,6.71,5.62,10.45,8.73-5.79,5.48-11.28,10.95-17.14,15.98-1.08.93-4.5.91-5.45-.05-8.31-8.39-17.36-15.81-27.77-21.33-9.11-4.83-18.27-9.91-27.99-13.16-12.49-4.19-25.55-7.11-38.93-6.16-15.3,1.08-30.06,4.2-44.28,10.57-17.52,7.85-32.25,19.07-43.46,34.34-5.83,7.94-9.81,17.33-13.96,26.37-7.75,16.86-7.35,34.8-5.12,52.62,1.53,12.25,6.28,23.73,12.43,34.39,6.92,12.01,15.68,22.61,26.76,31.16,9.63,7.43,20.08,13.21,31.48,17.52,14.71,5.56,29.93,8.28,45.51,7.87,30.91-.81,57.31-12.06,76.99-36.49,6.6-8.2,11.76-17.57,13.98-28.21.89-4.27,2.25-8.45,3.64-13.58Z"/>
      <path d="M1538.04,530.78c-3.79,4.39-7.19,9.01-11.27,12.93-12.13,11.63-26.46,18.68-43.1,22.13-13.95,2.89-27.88,3.42-41.56,1.24-24.23-3.86-44.31-15.5-58.67-36.04-9.73-13.91-15.39-29.13-15.17-46.2.13-10.05-.38-20.37,1.71-30.07,3.92-18.2,13.5-33.54,27.39-46.25,22.32-20.42,49.09-24.14,77.46-20.52,25.06,3.19,44.88,15.96,59.13,36.81,6.52,9.54,10.34,20.26,13.04,31.65,2.58,10.9,1.97,21.64,2.48,32.99h-138.71c-.81,8.64,2.89,15.46,7.17,21.64,6.97,10.06,16.57,16.07,28.93,18.76,20.1,4.39,36.89-1.06,52.01-14.1,1.19-1.02,3.84-1.61,5.18-1,11.06,4.99,21.96,10.3,34,16.03ZM1504.43,454.45c-1.43-13.42-19.61-28.92-38.75-30.72-24.78-2.33-46.22,9.37-52.91,30.72h91.66Z"/>
      <path d="M136.39,175.57c-.12,1.21-.33,2.36-.34,3.5-.01,16.84.02,33.67,0,50.51,0,2.82.51,4.64,3.56,6.2,5.18,2.65,9.59,6.51,12.13,12.17,1.22,2.71,3.36,4.59,6.99,4.25,4.13-.38,8.4.4,12.46-.25,2.31-.37,5.12-2.09,6.35-4.05,6.22-9.85,14.61-15.77,26.49-15.59,11.64.18,19.99,5.93,25.55,16.05,7.03,12.82,2.29,31.18-11.32,38.08-3.33,1.69-4.8,4.3-4.78,8.58.25,36.01.16,72.02.09,108.02,0,3.05.57,4.96,3.63,6.73,14.49,8.38,17.57,21.27,14.58,33.41-1.86,7.54-6.43,13.31-13.2,17.13-3.4,1.92-5.34,3.99-5.09,8.41.46,8.14.19,16.33.1,24.5-.06,5.39-4.72,10.16-9.86,10.35-4.94.18-10.01-4.74-10.13-10.25-.18-8.5-.28-17.01,0-25.5.11-3.28-.93-5.44-3.6-6.89-7.79-4.21-11.85-11.06-15.27-19.01-1.98-4.59-6.52-8.16-10.17-11.94-7.49-7.76-15.12-15.38-22.77-22.98-1.88-1.87-3.5-2.57-6.94-1.75-14.34,3.42-27.97-.13-35.31-16-8.13-17.58,2.22-34.23,16.53-39.28,13.52-4.77,26.43-.75,34.92,12.33,4.64,7.14,5.42,14.95,3.02,23.04-1.06,3.58-.27,6.03,2.63,8.7,7.97,7.31,15.52,15.1,23.37,22.83,3.96-2.68,8.21-5.32,12.11-8.39,1.02-.8,1.34-2.97,1.34-4.52.06-37.01-.04-74.02.14-111.02.02-3.88-2.75-4.74-4.7-6.7-3.75-3.78-7.27-7.79-11.18-11.4-1.74-1.6-4.06-3.2-6.29-3.5-4.09-.55-8.36.23-12.47-.25-4.07-.47-5.87,1.74-7.57,4.67-6.21,10.76-15.85,16.49-27.94,15.17-10.72-1.17-19.67-6.94-23.8-17.72-1.54-4.01-2.57-8.46-2.66-12.73-.22-11.25,5.99-19.1,15.2-24.52,3.04-1.79,3.6-3.73,3.59-6.7-.06-20,0-40.01-.08-60.01-.04-9.56,5.07-15.3,14.67-14.9,13.64.57,27.33.06,40.99.22,3.6.04,5.25-1.34,7.28-4.39,2.77-4.16,6.74-7.85,10.94-10.61,2.98-1.97,4.02-3.8,3.96-7.1-.14-8.33-.17-16.67,0-25,.14-6.4,4.61-10.67,10.5-10.47,4.96.17,9.42,4.39,9.5,9.37.14,8.83.16,17.67,0,26.5-.05,3.04,1,4.74,3.69,6.26,10.98,6.22,16.54,15.72,15.36,28.43-1.13,12.12-8.05,20.45-19.05,24.96-12.67,5.2-30.1-2.15-35.89-14.33-.7-1.47-2.8-3.19-4.28-3.21-11.66-.22-23.32-.07-34.99,0-.62,0-1.25.35-2.02.58ZM203.41,444.8c4.83.08,9.61-4.52,9.64-9.26.03-4.56-4.56-9.05-9.28-9.1-4.53-.04-9.64,4.5-9.78,8.7-.15,4.39,4.91,9.58,9.42,9.65ZM203.43,156.18c-5.06.03-9.56,4.24-9.35,8.76.18,3.95,5.51,9.31,9.35,9.39,4.23.09,9.57-5.26,9.63-9.66.06-4.5-4.51-8.53-9.62-8.5ZM125.92,368.96c-5.69.02-8.67,2.99-8.63,8.59.04,4.74,4.44,9.68,8.68,9.72,4.27.04,9.24-5.21,9.32-9.85.09-5.29-3.45-8.48-9.37-8.46ZM203.4,270.64c4.65.05,9.48-4.25,9.66-8.59.2-4.63-4.55-9.53-9.31-9.61-4.5-.08-9.48,4.37-9.73,8.69-.25,4.26,4.88,9.47,9.38,9.51ZM125.8,270.64c4.88.08,9.36-3.96,9.52-8.58.17-5.1-3.98-9.53-9.05-9.64-5.25-.12-8.74,3.37-8.9,8.91-.16,5.56,3.15,9.22,8.43,9.31Z"/>
      <path d="M852.12,477.54c-2.75-49.49,42.44-90.65,88.11-90.86,52.04-.24,93.48,41.41,93.27,90.29-.22,50.49-39.96,91.01-91.95,91.45-47.21.4-91.82-40.87-89.44-90.87ZM988.69,478.15c.46-10.7-.83-20.27-6.1-29.13-7.18-12.05-17.28-20.07-31.19-22.08-11.37-1.64-22.63-1.19-32.95,5.44-8.17,5.24-14.03,11.99-18.33,20.73-5.94,12.07-5.86,24.63-3.97,37.21.87,5.79,3.41,11.72,6.58,16.71,10.46,16.44,25.9,23.49,45.22,21.49,11.09-1.15,20.47-6.21,28.03-14.42,9.52-10.34,13.8-22.59,12.71-35.94Z"/>
      <path d="M1857.4,424.61c-4.86,2.68-9.82,5.43-14.79,8.16-5.05,2.77-10.06,5.61-15.17,8.26-3.67,1.9-6.69,2.06-10.36-1.33-13.86-12.79-30.94-15.16-48.79-12.89-18.32,2.33-31.83,11.67-39.87,28.83-9.28,19.8-5.53,44.67,10.33,59.67,5.65,5.35,12.28,9.65,20.22,10.98,6.3,1.06,12.67,2.24,19.03,2.3,16.44.17,30.61-5.49,41.68-18.02.54-.61,1.27-1.04,2.19-1.78,10.29,6.9,20.8,13.83,31.11,21.05,1.01.71,1.7,3.92,1.04,4.68-10.18,11.78-22.13,21.32-36.81,26.86-16.36,6.17-33.38,7.74-50.76,6.54-13.31-.92-26.14-3.98-38.05-9.78-13.09-6.38-23.45-16.26-32.16-27.96-16.5-22.14-19.28-47.3-14.24-73.16,4.1-21.05,16.23-38.08,33.55-51.03,24.21-18.11,51.91-21.6,80.8-17.95,23,2.91,42.25,13.74,57.68,31.15.65.73,1.05,1.68,1.58,2.52.41.67.83,1.33,1.81,2.89Z"/>
      <path d="M2000.7,193.39h-167.58c1.6,9.07,2.26,17.83,4.81,26,3.37,10.8,9.11,20.57,17.32,28.7,8.16,8.07,17.34,14.06,28.52,17.48,11.35,3.47,22.78,3.74,33.97,1.56,18.25-3.55,33.96-12.22,45.18-27.63,3.4-4.67,6.21-9.78,9.67-14.41.72-.97,3.46-1.48,4.63-.9,5.4,2.65,10.56,5.76,16.68,9.19-2.42,4.4-4.66,9.15-7.5,13.5-6.42,9.82-14.2,18.54-23.68,25.48-8.67,6.35-18.18,11.03-28.66,13.99-16.56,4.67-33.34,4.24-49.91,1.78-18.08-2.69-33.76-11.3-46.44-24.66-10.83-11.41-18.76-24.82-23.69-39.67-5.47-16.5-6.21-33.79-2.98-50.68,4.25-22.17,15.04-41.2,32.07-56.41,8.86-7.92,18.8-13.8,30.18-17.47,12.94-4.18,26.15-5.95,39.59-4.73,24.61,2.24,45.9,11.69,62.48,30.55,10.75,12.23,18.69,25.94,21.44,42.21,1.42,8.4,2.54,16.86,3.92,26.13ZM1972.7,172.37c-4.74-32.82-31.27-55.35-66.33-56.39-37.4-1.11-62.08,23.37-69.25,56.39h135.58Z"/>
      <path d="M1068.43,133.06v-33.13h23.77v184.96h-23.5v-29.37c-.43-.18-.86-.35-1.29-.53-1.76,1.93-3.42,3.96-5.28,5.78-10.67,10.48-22.7,19.18-36.75,24.27-17.11,6.2-35.22,6.58-52.64,2.76-25.41-5.58-44.77-21.13-58.71-42.82-8.08-12.58-11.92-26.77-14.04-41.82-1.63-11.58-.09-22.53,1.75-33.49,2.11-12.56,7.83-24,15.25-34.43,8.09-11.36,18.01-21.03,30-27.96,7.75-4.48,16.55-7.36,25.14-10.12,5.43-1.74,11.33-2.5,17.06-2.76,33.42-1.47,58.83,11.73,79.24,38.66ZM1069.62,191.6c.62-18.9-5.62-36.25-18.66-51.14-10.42-11.9-23.22-19.89-38.84-22.81-8.73-1.63-17.35-2.61-26.49-.72-10.74,2.22-20.69,5.59-29.64,11.77-9.92,6.86-17.28,15.85-23.15,26.51-6.47,11.75-9.15,24.38-9.6,37.29-.26,7.48,2.34,15.16,4.24,22.61,3.78,14.83,12.29,26.73,23.84,36.59,10.12,8.64,21.76,14.05,34.88,15.87,10.06,1.39,20.01.85,30-2,10.53-3,19.93-7.77,28.12-14.78,17.84-15.26,25.79-34.99,25.31-59.18Z"/>
      <path d="M1411.33,130.73v-30.95h23.17v185.18h-23.2v-29.23c-.38-.18-.77-.36-1.15-.54-2.64,2.56-5.32,5.08-7.9,7.7-8.95,9.11-19.48,15.63-31.23,20.69-17.81,7.66-36.34,7.66-54.55,4.33-21.53-3.94-38.72-16.44-52.48-33.32-9.1-11.16-15.26-23.75-18.74-37.94-3.68-15.05-4.09-30.24-1.17-45,4.96-25.1,18.61-45.25,39.67-60.12,11.51-8.13,23.82-14.26,38.15-15.43,6.89-.56,13.81-2,20.65-1.65,23.51,1.23,43.56,10.42,59.65,27.81,2.73,2.95,5.37,6,8.05,9,.36-.18.72-.36,1.09-.54ZM1266.37,199.9c-.3,11.47,6.55,28.75,19.15,43.3,13.87,16.02,31.68,25,53.4,25.1,14.62.07,27.74-4.15,40.24-11.77,13.26-8.09,22.75-19.33,28.04-33.42,4.72-12.58,6.62-25.75,4.96-39.73-1.97-16.67-7.67-31.01-18.7-43.37-10.28-11.52-22.83-19.45-38.12-22.29-8.7-1.62-17.27-2.5-26.45-.85-12.6,2.26-24.13,6.52-33.71,14.43-18.77,15.49-28.47,35.82-28.8,68.61Z"/>
      <path d="M1488.74,285.31V99.86h23.41v29.61c.39.24.77.48,1.16.72,1.79-1.97,3.6-3.91,5.37-5.9,9.81-11.03,21.17-19.76,35.19-24.93,10.87-4.01,22.04-6.12,33.47-4.89,23.09,2.49,40.98,13.41,52,34.36,5.91,11.23,8.74,23.43,8.89,35.96.49,39.15.48,78.31.65,117.47,0,.81-.19,1.62-.32,2.74h-22.46v-7.27c0-25.66.23-51.33-.09-76.98-.18-13.95-.77-27.94-2.17-41.82-1.52-15.11-7.74-28.05-21.17-36.49-2.02-1.27-4.19-2.66-6.46-3.13-8.76-1.81-17.31-5.66-26.63-2.57-4.78,1.58-9.94,2.03-14.67,3.71-12.7,4.53-22.13,13.3-29.83,24.13-9.58,13.46-12.25,28.86-12.37,44.87-.22,29.83-.24,59.65-.33,89.48q-.02,6.39-6.59,6.39c-5.48,0-10.97,0-17.04,0Z"/>
      <path d="M2186.04,564.26v-239.35h43.53v239.35h-43.53Z"/>
      <path d="M1617.33,564.14h-43.53v-173.4h37.43v17.54c14.09-20.16,32.19-26.01,55.73-17.61-4.74,12.62-9.18,24.43-13.8,36.7-2.51-1.12-4.58-2.39-6.84-3-9.87-2.66-16.04.47-22.13,11.08-4.84,8.43-6.36,17.88-6.43,27.48-.23,31.32-.3,62.64-.43,93.97,0,2.16,0,4.32,0,7.24Z"/>
      <path d="M1720.88,120.25c-9.75,0-18.56-.18-27.36.08-4.22.12-5.69-1.6-5.56-5.54.12-3.49.2-7.01-.02-10.49-.24-3.81,1.48-4.91,5.04-4.85,8.97.15,17.95.05,27.52.05V31.24h23.97v68.23h37.99v20.66h-37.67v164.84h-23.91V120.25Z"/>
      <path d="M1936.07,564.32h-42.5v-173.6h42.5v173.6Z"/>
      <path d="M1161.11,125.1c8.86-11.57,17.66-21.26,30.03-26.88,12.11-5.5,24.08-5.41,35.73,1.25.82.47,1.45,2.93.97,3.76-2.84,4.84-5.9,9.59-9.26,14.08-.66.88-3.19,1.15-4.46.65-8.37-3.25-16.1-2.16-23.86,2.16-7.21,4.02-12.7,9.44-16.88,16.53-7.98,13.52-11.37,28.24-11.55,43.73-.38,32.17-.5,64.34-.71,96.51-.05,8.43-.01,8.43-8.59,8.43-4.17,0-8.34-.17-12.5.05-3.28.17-4.34-1.04-4.3-4.31.15-12.67.06-25.34.06-38.01,0-45.51,0-91.02,0-136.53,0-1.99,0-3.98,0-6.91,7.85,0,15.43-.14,23,.19.83.04,2.16,2.72,2.21,4.21.24,6.61.1,13.24.1,21.1Z"/>
      <path d="M1914.68,321.04c15.85-1.36,28.06,13.23,27.89,27.08-.19,15.06-13.12,27.32-27.95,27.21-13.72-.11-27.7-11.8-27.52-28.17.15-13.74,12.44-27.5,27.58-26.12Z"/>
      <path d="M420.16,291.23c-7.54.11-13.19-4.14-13.57-9.09-.48-6.08,3.42-10.54,10.32-11.26,13.68-1.42,21.83-9.94,27.34-21.48,1.71-3.58,1.4-8.12,3.06-11.75,2.19-4.79,7.2-6.63,11.34-5.19,3.4,1.18,7.4,6.99,6.99,10.84-1.58,14.74-7.9,26.92-19.51,36.39-8.08,6.59-17.49,9.64-25.97,11.53Z"/>
      <path d="M433.51,193.81c-18.52-1.91-30.66-11.31-39.52-25.55-4.24-6.81-6.47-14.28-6.25-22.41.15-5.72,2.78-9.22,7.68-9.94,5.27-.78,9.17,1.61,11.04,6.67,2.24,6.07,3.71,12.62,7.02,18.05,5.24,8.59,14,12.53,23.81,13.92,3.92.55,6.92,2.18,7.97,6.12,1.17,4.4.84,8.98-3.37,11.4-2.65,1.53-6.29,1.36-8.37,1.74Z"/>
      <path d="M465.63,393.75c.13,7.57-3.77,12.04-8.92,12.51-6.72.61-10.16-1.92-11.55-10.54-.8-4.98-2.13-9.4-4.93-13.47-6.04-8.77-14.72-12.76-24.95-14.6-6.72-1.21-9.69-5.84-8.63-11.59.88-4.73,7.02-8.28,12.87-7.67,20.59,2.15,33.83,14.28,42.59,31.96,2.29,4.62,2.71,10.16,3.52,13.39Z"/>
      <path d="M355.7,87.64c9.11-1.33,12.95,4.38,12.11,11.22-.52,4.23-2.69,6.35-6.65,7.49-5.29,1.52-10.91,2.7-15.6,5.39-7.94,4.56-13.72,11.19-15,20.94-.42,3.18-1.41,6.58-3.14,9.21-2.52,3.83-6.8,4.77-11.02,3.13-4.05-1.58-6.88-4.62-6.57-9.4,1.22-18.58,10.18-32.45,26.11-41.78,6.09-3.56,12.5-6.67,19.75-6.2Z"/>
      <path d="M309.78,375.81c1.43-14.7,8.08-26.61,19.51-35.83,6.6-5.32,13.93-8.88,22.59-10.04,4.11-.55,7.66-1.86,11.77.48,4.9,2.79,4.45,7.06,3.95,11.27-.47,3.97-3.24,6.53-7.21,6.82-13.65.99-22.8,8.36-28.57,20.18-1.75,3.57-1.73,7.97-3.1,11.77-1.96,5.45-6.39,8.19-10.87,6.8-4.19-1.3-8.77-5.38-8.06-11.45Z"/>
      <path d="M355.27,271.15c-17.13-2.47-30.32-10.91-38.96-26.02-3.79-6.63-6.42-13.7-6.48-21.51-.04-5.2,2.93-9.22,7.52-10.15,5.65-1.14,9.44.95,11.45,6.61,1.74,4.88,2.57,10.2,4.95,14.72,4.22,8.02,10.49,13.93,20.02,15.54,3.52.6,7.27,1.31,10.3,3.05,4.58,2.63,4.46,7.55,3.31,11.96-.99,3.79-4.02,5.8-8.11,5.79-1.33,0-2.66,0-3.99,0Z"/>
      <path d="M361.84,426.11c17.53,1.7,29.92,10.97,39.04,25.79,4.06,6.61,5.49,13.58,5.97,20.98.42,6.36-3.06,10.76-8.53,11.08-6.58.38-10.09-3.16-11-10-1.63-12.35-8.08-21.28-19.84-25.99-2.26-.9-4.57-2.07-6.93-2.28-8.35-.74-11.92-4.01-11.76-10.9.12-5.17,4.76-9.89,13.04-8.67Z"/>
    </g>
  </g>
</svg>