<svg id="Grupo_4408" data-name="Grupo 4408" xmlns="http://www.w3.org/2000/svg" xmlns:xlink="http://www.w3.org/1999/xlink" width="138.252" height="36.129" viewBox="0 0 138.252 36.129">
  <defs>
    <clipPath id="clip-path">
      <rect id="Rectángulo_1494" data-name="Rectángulo 1494" width="138.252" height="36.129" fill="#dbc16a"/>
    </clipPath>
  </defs>
  <g id="Grupo_4407" data-name="Grupo 4407" clip-path="url(#clip-path)">
    <path id="Trazado_1835" data-name="Trazado 1835" d="M25,33.025c-.1.2-.222.426-.338.654a3.976,3.976,0,0,1-1.912,1.838,4.785,4.785,0,0,1-2.066.611,5.386,5.386,0,0,1-1.638-.466,4.525,4.525,0,0,1-1.037-.6.575.575,0,0,1-.221-.82.569.569,0,0,1,.848-.179,3.675,3.675,0,0,0,1.86.712,3.271,3.271,0,0,0,1.031-.112,3.081,3.081,0,0,0,2.021-1.536,5.749,5.749,0,0,0,.5-1.425.992.992,0,0,1,.454-.521c.234-.133.443.083.626.219a8.488,8.488,0,0,0,.943.743,1.872,1.872,0,0,0,1.554.155,2.436,2.436,0,0,0,1.368-.955,1.957,1.957,0,0,0,.319-1.954c-.155-.35-.325-.693-.5-1.035a.537.537,0,0,1,.335-.778,1.317,1.317,0,0,1,.459-.015,2.368,2.368,0,0,0,2.582-1.324,2.283,2.283,0,0,0-.747-2.935,2.62,2.62,0,0,0-.54-.325.563.563,0,0,1-.388-.561.629.629,0,0,1,.374-.6,3.049,3.049,0,0,0,1.393-1.687,2.784,2.784,0,0,0,.093-1.547,2.828,2.828,0,0,0-.972-1.6c-.132-.109-.268-.212-.4-.319a.662.662,0,0,1-.216-.869,5.078,5.078,0,0,0,.439-1.25,2.121,2.121,0,0,0-.371-1.393,2.847,2.847,0,0,0-1.23-1,.582.582,0,0,1-.231-.909,2.489,2.489,0,0,0,.624-1.81A2.264,2.264,0,0,0,28.593,7.47c-.241-.1-.481-.2-.723-.3a.466.466,0,0,1-.291-.522c.013-.278.013-.558.014-.837a2.448,2.448,0,0,0-1.728-2.084,2.324,2.324,0,0,0-1.992.37.676.676,0,0,1-1.1-.543,2.465,2.465,0,0,0-1.387-1.981,2.808,2.808,0,0,0-1.256-.34,2.278,2.278,0,0,0-1.981,1.023,11.7,11.7,0,0,0-.724,1.462A.7.7,0,0,0,17.408,4q0,13.784,0,27.569a4.163,4.163,0,0,1-1.964,3.649,15.478,15.478,0,0,1-1.6.735,2.578,2.578,0,0,1-1.513.129,3.891,3.891,0,0,1-1.038-.365A4.685,4.685,0,0,1,9.254,34.1a4.118,4.118,0,0,1-.436-.793c-.115-.273-.169-.306-.44-.155a3.549,3.549,0,0,1-2.2.4A3.5,3.5,0,0,1,3.4,31.625a3.79,3.79,0,0,1-.326-2.358c.019-.162.126-.374.059-.469s-.308-.048-.46-.1A3.866,3.866,0,0,1,.407,26.851,3.791,3.791,0,0,1,.035,24.7a3.234,3.234,0,0,1,.823-1.8,4.01,4.01,0,0,1,.391-.385c.111-.1.163-.189.02-.324A4.172,4.172,0,0,1,1.4,16.065a.317.317,0,0,0,.092-.269A3.133,3.133,0,0,1,1.2,14.341,3.522,3.522,0,0,1,2.593,11.6c.185-.149.26-.246.138-.521A3.6,3.6,0,0,1,2.607,8.5,3.058,3.058,0,0,1,4.274,6.517c.517-.238.518-.643.588-1.046A3.58,3.58,0,0,1,6.84,2.8a4,4,0,0,1,2.4-.3.525.525,0,0,1,.166.068c.312.155.389.112.54-.2A4.076,4.076,0,0,1,11.47.614,3.812,3.812,0,0,1,14.09.05a3.427,3.427,0,0,1,1.98,1,.57.57,0,0,1,.006.806.529.529,0,0,1-.781.079,6.044,6.044,0,0,0-.662-.413,2.484,2.484,0,0,0-2.7.267,2.553,2.553,0,0,0-1.08,1.895c-.05.547-.621.725-1.118.388a2.192,2.192,0,0,0-1.394-.442A2.488,2.488,0,0,0,6.178,5.238a3.3,3.3,0,0,0-.115,1.3c.015.472-.046.62-.628.78A2.467,2.467,0,0,0,3.742,8.942a2.38,2.38,0,0,0,.509,2.275.616.616,0,0,1-.2.931,2.763,2.763,0,0,0-1.3,1.1,2.292,2.292,0,0,0-.137,2.031c.094.234.229.452.341.679.119.243-.072.571-.43.821a2.825,2.825,0,0,0-1.293,2.669,2.9,2.9,0,0,0,1.519,2.365.674.674,0,0,1,.425.586.65.65,0,0,1-.445.594,2.525,2.525,0,0,0-1.491,1.863,2.432,2.432,0,0,0,2.868,2.7.639.639,0,0,1,.725.274.663.663,0,0,1-.106.743,2.251,2.251,0,0,0-.519,1.492,2.306,2.306,0,0,0,1.3,2.014,2.989,2.989,0,0,0,1.157.312A2.339,2.339,0,0,0,8.384,31.6a1.746,1.746,0,0,1,.123-.135c.188-.15.363-.356.641-.263a.734.734,0,0,1,.532.681,2.862,2.862,0,0,0,.619,1.56,3.2,3.2,0,0,0,2.145,1.287,3.466,3.466,0,0,0,1.384-.094,3,3,0,0,0,1.862-1.372,3.736,3.736,0,0,0,.545-2.068q-.007-13.536-.008-27.073A4.224,4.224,0,0,1,17.642,1,3.415,3.415,0,0,1,20.725.059,3.807,3.807,0,0,1,23.515,2a3.4,3.4,0,0,1,.21.472c.09.241.269.19.436.134a3.48,3.48,0,0,1,2.193,0A3.339,3.339,0,0,1,28.2,4a5.007,5.007,0,0,1,.518,1.187c.1.287.089.606.158.9a.437.437,0,0,0,.221.258,3.309,3.309,0,0,1,1.868,1.933,4.905,4.905,0,0,1,.288,1.313,3.508,3.508,0,0,1-.452,1.772A3.646,3.646,0,0,1,32.146,15.9c.3.4.637.789.918,1.215a3.193,3.193,0,0,1,.434.927,6.267,6.267,0,0,1,.2,1.327,3.761,3.761,0,0,1-.6,1.925,4.342,4.342,0,0,1-.7.9c-.13.135-.107.2,0,.289a3.591,3.591,0,0,1,1.1,1.611,2.8,2.8,0,0,1,.076,1.975,4.018,4.018,0,0,1-1.3,1.962,3.132,3.132,0,0,1-1.536.7c-.2.025-.274.062-.22.308a3.581,3.581,0,0,1-1.2,3.76,3.648,3.648,0,0,1-3.149.711A6.2,6.2,0,0,1,25,33.025" transform="translate(0 0)" fill="#dbc16a"/>
    <path id="Trazado_1836" data-name="Trazado 1836" d="M1085.137,397.561h-2.676v-.344c0-1.478.018-2.956-.007-4.434a15.926,15.926,0,0,0-.172-2.337c-.213-1.274-1.193-1.752-2.482-1.276a2.19,2.19,0,0,0-1.4,2.061c-.082.963-.11,1.931-.127,2.9-.021,1.135,0,2.27,0,3.426h-2.676c0-.117,0-.227,0-.337,0-1.716.012-3.432-.011-5.147a7.34,7.34,0,0,0-.182-1.682,1.767,1.767,0,0,0-2.776-1.1,2.429,2.429,0,0,0-1.129,1.934c-.247,1.966-.054,3.938-.119,5.906,0,.132,0,.265,0,.42h-2.654V386.806h2.657v1.129c.408-.289.769-.568,1.152-.81a3.267,3.267,0,0,1,1.665-.537,4.322,4.322,0,0,1,1.941.208,3.355,3.355,0,0,1,1.536,1.311c.177.286.2.291.415.049a4.545,4.545,0,0,1,2.036-1.4,4.386,4.386,0,0,1,2.466-.077,2.955,2.955,0,0,1,2.367,2.513,15.417,15.417,0,0,1,.173,2.02c.023,2.025.01,4.051.01,6.077v.271" transform="translate(-1002.449 -362.57)" fill="#dbc16a"/>
    <path id="Trazado_1837" data-name="Trazado 1837" d="M611.752,336.559a10.242,10.242,0,0,1-2.765,2.081,5.5,5.5,0,0,1-1.39.453,10.429,10.429,0,0,1-2.033.272,12.123,12.123,0,0,1-2.127-.257,8,8,0,0,1-1.278-.387,6.4,6.4,0,0,1-2.322-1.557,6.944,6.944,0,0,1-1.681-2.713,8.39,8.39,0,0,1-.371-3.648,7.2,7.2,0,0,1,1.2-3.32,7.417,7.417,0,0,1,2.9-2.494,11.872,11.872,0,0,1,1.952-.647,6.668,6.668,0,0,1,2.7-.12,7.92,7.92,0,0,1,2.3.644,8.6,8.6,0,0,1,2.2,1.395c.273.239.516.511.8.793-.462.441-.884.846-1.309,1.247a2.681,2.681,0,0,0-.458.418c-.138.215-.248.142-.36.021a6.927,6.927,0,0,0-2.188-1.523,3.152,3.152,0,0,0-.789-.224,7.659,7.659,0,0,0-1.245-.163,4.82,4.82,0,0,0-4.13,2.091,6.184,6.184,0,0,0-.662,1.48,4.361,4.361,0,0,0-.105,2.348,4.5,4.5,0,0,0,1.834,2.973,5.349,5.349,0,0,0,4.078.879,5.258,5.258,0,0,0,2.631-1.31c.218-.191.435-.385.662-.565.045-.036.168-.051.2-.02.586.607,1.165,1.221,1.762,1.853" transform="translate(-560.664 -304.043)" fill="#dbc16a"/>
    <path id="Trazado_1838" data-name="Trazado 1838" d="M1977.942,398.106h-2.62V397c-.255.177-.46.3-.647.452a4.274,4.274,0,0,1-3.143.877,5.313,5.313,0,0,1-4.6-4.712,9.054,9.054,0,0,1-.088-1.376,5.63,5.63,0,0,1,2.226-4.262,3.884,3.884,0,0,1,2.213-.845,5.565,5.565,0,0,1,2.1.181,5.633,5.633,0,0,1,1.906,1.166v-1.134h2.652Zm-2.564-5.39.094-.017a7.853,7.853,0,0,0-.386-1.566,2.621,2.621,0,0,0-1.581-1.418,2.963,2.963,0,0,0-2.387.118,2.867,2.867,0,0,0-1.544,2.348,3.474,3.474,0,0,0,.449,2.363,2.819,2.819,0,0,0,2.778,1.344,2.723,2.723,0,0,0,1.794-.91,2.956,2.956,0,0,0,.782-2.263" transform="translate(-1844.874 -363.111)" fill="#dbc16a"/>
    <path id="Trazado_1839" data-name="Trazado 1839" d="M612.258,38.4h-.4c-1.4,0-2.791-.008-4.186.006-.3,0-.382-.1-.364-.377.019-.3.012-.6,0-.9-.007-.209.07-.3.287-.3q3.039.007,6.077,0c.252,0,.345.115.324.363a9.731,9.731,0,0,1-.746,3.389,6.762,6.762,0,0,1-2.841,3.124,7.562,7.562,0,0,1-1.807.736,9.131,9.131,0,0,1-2.677.3,10.361,10.361,0,0,1-3.374-.658,8.1,8.1,0,0,1-3.7-2.96,7.8,7.8,0,0,1-1.048-2.17,8.071,8.071,0,0,1-.258-3.651,7.459,7.459,0,0,1,1.161-3.055,8.454,8.454,0,0,1,1.592-1.849,7.926,7.926,0,0,1,2.113-1.284,6.8,6.8,0,0,1,2.3-.577,13.678,13.678,0,0,1,2.089-.075,11.611,11.611,0,0,1,2.5.546,8.932,8.932,0,0,1,3.135,1.907c.2.183.416.348.648.541-.359.34-.7.679-1.063.991a.346.346,0,0,1-.338,0,7.166,7.166,0,0,0-1.722-1.323,11.769,11.769,0,0,0-1.735-.816,6.223,6.223,0,0,0-2.414-.382,8.009,8.009,0,0,0-2.746.656,6.622,6.622,0,0,0-2.695,2.13,9.261,9.261,0,0,0-.866,1.635,5.885,5.885,0,0,0-.318,3.263,5.721,5.721,0,0,0,.771,2.132,6.513,6.513,0,0,0,1.659,1.932,7.519,7.519,0,0,0,1.952,1.086,7.377,7.377,0,0,0,2.822.488A6.04,6.04,0,0,0,611.166,41a4.142,4.142,0,0,0,.867-1.749c.055-.265.139-.524.225-.842" transform="translate(-560.404 -26.686)" fill="#dbc16a"/>
    <path id="Trazado_1840" data-name="Trazado 1840" d="M1378.779,395.7c-.235.272-.446.559-.7.8a5.3,5.3,0,0,1-2.673,1.372,7.114,7.114,0,0,1-2.577.077,5.284,5.284,0,0,1-3.638-2.235,4.805,4.805,0,0,1-.941-2.864,9.524,9.524,0,0,1,.106-1.865,5.378,5.378,0,0,1,1.7-2.868,5.643,5.643,0,0,1,4.8-1.272,5.086,5.086,0,0,1,3.667,2.282,5.758,5.758,0,0,1,.809,1.963,10.784,10.784,0,0,1,.154,2.046h-8.6a1.979,1.979,0,0,0,.445,1.342,2.8,2.8,0,0,0,1.794,1.163,3.523,3.523,0,0,0,3.225-.874.372.372,0,0,1,.321-.062c.686.309,1.362.639,2.108.994m-2.084-4.733a2.726,2.726,0,0,0-2.4-1.905,2.956,2.956,0,0,0-3.281,1.905Z" transform="translate(-1283.408 -362.783)" fill="#dbc16a"/>
    <path id="Trazado_1841" data-name="Trazado 1841" d="M99.136,101.871c-.008.075-.021.146-.021.217,0,1.044,0,2.088,0,3.132a.36.36,0,0,0,.221.385,1.575,1.575,0,0,1,.752.755.4.4,0,0,0,.434.264c.256-.023.521.025.773-.016a.633.633,0,0,0,.394-.251,1.829,1.829,0,0,1,1.642-.967,1.75,1.75,0,0,1,1.584,1,1.768,1.768,0,0,1-.7,2.361.523.523,0,0,0-.3.532c.015,2.233.01,4.466.006,6.7a.4.4,0,0,0,.225.417,1.764,1.764,0,0,1,.9,2.072,1.641,1.641,0,0,1-.818,1.062.5.5,0,0,0-.316.521c.029.5.012,1.013.006,1.519a.62.62,0,1,1-1.24.006c-.011-.527-.017-1.055,0-1.581a.415.415,0,0,0-.223-.427,2.206,2.206,0,0,1-.947-1.179,2.841,2.841,0,0,0-.63-.74c-.465-.481-.938-.954-1.412-1.425a.386.386,0,0,0-.43-.109,1.811,1.811,0,1,1,1-2.664,1.656,1.656,0,0,1,.187,1.429.468.468,0,0,0,.163.54c.495.454.962.936,1.449,1.416.245-.166.509-.33.751-.52a.4.4,0,0,0,.083-.28c0-2.295,0-4.59.009-6.884,0-.24-.171-.294-.292-.416-.232-.234-.451-.483-.693-.707a.793.793,0,0,0-.39-.217c-.254-.034-.518.014-.773-.015s-.364.108-.469.29a1.77,1.77,0,0,1-3.208-.159,2.383,2.383,0,0,1-.165-.789,1.68,1.68,0,0,1,.942-1.52.4.4,0,0,0,.223-.415c0-1.24,0-2.481-.005-3.721a.813.813,0,0,1,.909-.924c.846.035,1.695,0,2.542.014a.472.472,0,0,0,.452-.272,2.431,2.431,0,0,1,.678-.658.451.451,0,0,0,.246-.44c-.009-.517-.011-1.034,0-1.55a.621.621,0,0,1,1.24-.068c.009.548.01,1.1,0,1.643a.385.385,0,0,0,.229.388,1.726,1.726,0,0,1,.953,1.763,1.781,1.781,0,0,1-1.181,1.548,1.868,1.868,0,0,1-2.225-.889.384.384,0,0,0-.265-.2c-.723-.014-1.446,0-2.17,0a.513.513,0,0,0-.125.036m4.156,16.694a.622.622,0,0,0,.6-.574.609.609,0,0,0-.576-.564.652.652,0,0,0-.607.539.666.666,0,0,0,.584.6m0-17.9a.573.573,0,0,0-.58.543.745.745,0,0,0,.58.583.7.7,0,0,0,.6-.6.578.578,0,0,0-.6-.527m-4.806,13.194a.476.476,0,0,0-.535.533.632.632,0,0,0,.538.6.679.679,0,0,0,.578-.611c.006-.328-.214-.526-.581-.524m4.8-6.1a.565.565,0,1,0,.022-1.129.647.647,0,0,0-.6.539.655.655,0,0,0,.581.59m-4.812,0a.565.565,0,1,0,.029-1.13.52.52,0,0,0-.552.553.513.513,0,0,0,.522.577" transform="translate(-90.679 -90.984)" fill="#dbc16a"/>
    <path id="Trazado_1842" data-name="Trazado 1842" d="M852.007,392.306a5.6,5.6,0,0,1,5.464-5.634,5.636,5.636,0,1,1,.082,11.269,5.575,5.575,0,0,1-5.546-5.635m8.468.038a3.124,3.124,0,0,0-.378-1.806,2.638,2.638,0,0,0-1.934-1.369,2.865,2.865,0,0,0-2.043.337,3.1,3.1,0,0,0-1.137,1.285,3.782,3.782,0,0,0-.246,2.307,2.921,2.921,0,0,0,3.212,2.368,2.694,2.694,0,0,0,1.738-.894,2.857,2.857,0,0,0,.788-2.229" transform="translate(-799.168 -362.695)" fill="#dbc16a"/>
    <path id="Trazado_1843" data-name="Trazado 1843" d="M1690.733,389.1l-.917.506c-.313.172-.624.348-.941.512a.49.49,0,0,1-.643-.082,3.561,3.561,0,0,0-3.026-.8,2.983,2.983,0,0,0-2.472,1.788,3.26,3.26,0,0,0,.641,3.7,2.42,2.42,0,0,0,1.253.681,7.7,7.7,0,0,0,1.18.143,3.251,3.251,0,0,0,2.585-1.118,1.159,1.159,0,0,1,.135-.11c.638.428,1.29.858,1.929,1.305a.308.308,0,0,1,.065.29,5.668,5.668,0,0,1-2.282,1.666,7.365,7.365,0,0,1-3.148.406,6.338,6.338,0,0,1-2.359-.606,5.6,5.6,0,0,1-2.877-6.27,5.154,5.154,0,0,1,2.08-3.164,6.62,6.62,0,0,1,5.01-1.113,5.621,5.621,0,0,1,3.577,1.931,1.1,1.1,0,0,1,.1.156l.112.179" transform="translate(-1575.559 -362.767)" fill="#dbc16a"/>
    <path id="Trazado_1844" data-name="Trazado 1844" d="M1820.983,100.271h-10.391a13.231,13.231,0,0,0,.3,1.612,4.384,4.384,0,0,0,2.842,2.863,4.309,4.309,0,0,0,2.106.1,4.365,4.365,0,0,0,2.8-1.714c.211-.29.385-.606.6-.894a.305.305,0,0,1,.287-.056c.335.164.655.357,1.034.57-.15.273-.289.567-.465.837a6,6,0,0,1-1.469,1.58,5.512,5.512,0,0,1-1.777.868,7.316,7.316,0,0,1-3.095.11,4.919,4.919,0,0,1-2.88-1.529,6.537,6.537,0,0,1-1.469-2.46,6.216,6.216,0,0,1-.185-3.143,6.151,6.151,0,0,1,1.988-3.5,5.153,5.153,0,0,1,1.871-1.083,6.128,6.128,0,0,1,2.455-.293,5.628,5.628,0,0,1,3.874,1.894,5.278,5.278,0,0,1,1.33,2.618c.088.521.157,1.045.243,1.621m-1.736-1.3a4.081,4.081,0,0,0-4.113-3.5,4.147,4.147,0,0,0-4.294,3.5Z" transform="translate(-1696.924 -88.279)" fill="#dbc16a"/>
    <path id="Trazado_1845" data-name="Trazado 1845" d="M909.787,96.7V94.643h1.474v11.469H909.8v-1.821l-.08-.033c-.109.12-.212.245-.328.359a6.372,6.372,0,0,1-2.279,1.5,5.848,5.848,0,0,1-3.264.171,5.749,5.749,0,0,1-3.64-2.655,6.319,6.319,0,0,1-.871-2.593,6.681,6.681,0,0,1,.108-2.077,5.19,5.19,0,0,1,.946-2.135,5.96,5.96,0,0,1,1.86-1.734,7.972,7.972,0,0,1,1.559-.628,4.07,4.07,0,0,1,1.058-.171,5.508,5.508,0,0,1,4.913,2.4m.074,3.629a4.478,4.478,0,0,0-1.157-3.171,4.46,4.46,0,0,0-4.051-1.459,4.885,4.885,0,0,0-1.838.73,4.676,4.676,0,0,0-1.435,1.644,5.083,5.083,0,0,0-.6,2.312,5.148,5.148,0,0,0,.263,1.4,4.381,4.381,0,0,0,1.478,2.269,4.16,4.16,0,0,0,2.163.984,4.458,4.458,0,0,0,1.86-.124,4.553,4.553,0,0,0,1.743-.916,4.442,4.442,0,0,0,1.569-3.67" transform="translate(-843.535 -88.446)" fill="#dbc16a"/>
    <path id="Trazado_1846" data-name="Trazado 1846" d="M1252.641,96.645V94.727h1.437v11.483h-1.439V104.4l-.071-.033c-.163.159-.33.315-.49.477a5.947,5.947,0,0,1-1.937,1.283,5.759,5.759,0,0,1-3.383.268,5.47,5.47,0,0,1-3.255-2.066,5.87,5.87,0,0,1-1.162-2.352,6.434,6.434,0,0,1-.073-2.791,5.844,5.844,0,0,1,2.46-3.728,4.749,4.749,0,0,1,2.366-.957,9.721,9.721,0,0,1,1.28-.1,5.243,5.243,0,0,1,3.7,1.725c.169.183.333.372.5.558l.067-.033m-8.989,4.29a4.448,4.448,0,0,0,1.187,2.685,4.26,4.26,0,0,0,3.311,1.556,4.646,4.646,0,0,0,2.495-.73,4.063,4.063,0,0,0,1.739-2.072,5.173,5.173,0,0,0,.308-2.464,4.715,4.715,0,0,0-1.16-2.689,4.141,4.141,0,0,0-2.364-1.382,4.523,4.523,0,0,0-3.73.842,5.071,5.071,0,0,0-1.786,4.254" transform="translate(-1165.126 -88.539)" fill="#dbc16a"/>
    <path id="Trazado_1847" data-name="Trazado 1847" d="M1488.742,105.973v-11.5h1.452V96.31l.072.045c.111-.122.224-.243.333-.366a5.417,5.417,0,0,1,2.182-1.546,4.544,4.544,0,0,1,2.075-.3,3.9,3.9,0,0,1,3.224,2.131,4.878,4.878,0,0,1,.552,2.23c.03,2.428.03,4.856.04,7.284a1.5,1.5,0,0,1-.02.17h-1.393V105.5c0-1.591.015-3.183-.006-4.774-.011-.865-.048-1.733-.134-2.593a2.854,2.854,0,0,0-1.313-2.263,1.293,1.293,0,0,0-.4-.194,3.062,3.062,0,0,0-1.652-.159c-.3.1-.616.126-.91.23a3.879,3.879,0,0,0-1.85,1.5,4.683,4.683,0,0,0-.767,2.782c-.014,1.849-.015,3.7-.021,5.548,0,.4,0,.4-.409.4h-1.057" transform="translate(-1396.428 -88.282)" fill="#dbc16a"/>
    <rect id="Rectángulo_1492" data-name="Rectángulo 1492" width="2.699" height="14.842" transform="translate(135.553 20.147)" fill="#dbc16a"/>
    <path id="Trazado_1848" data-name="Trazado 1848" d="M1576.5,397.938h-2.7V387.186h2.321v1.088a2.7,2.7,0,0,1,3.456-1.092l-.856,2.276a3.134,3.134,0,0,0-.424-.186c-.612-.165-.995.029-1.373.687a3.411,3.411,0,0,0-.4,1.7c-.014,1.942-.019,3.884-.026,5.827,0,.134,0,.268,0,.449" transform="translate(-1476.216 -362.957)" fill="#dbc16a"/>
    <path id="Trazado_1849" data-name="Trazado 1849" d="M1689.964,36.763c-.6,0-1.151-.011-1.7,0-.262.008-.353-.1-.345-.343.007-.217.012-.434,0-.651-.015-.236.092-.3.313-.3.556.009,1.113,0,1.706,0V31.244h1.486v4.231h2.356v1.281h-2.336V46.978h-1.483Z" transform="translate(-1583.255 -29.307)" fill="#dbc16a"/>
    <rect id="Rectángulo_1493" data-name="Rectángulo 1493" width="2.636" height="10.764" transform="translate(117.417 24.228)" fill="#dbc16a"/>
    <path id="Trazado_1850" data-name="Trazado 1850" d="M1137.3,96.183a5.027,5.027,0,0,1,1.862-1.667,2.313,2.313,0,0,1,2.215.077.245.245,0,0,1,.06.233,9.484,9.484,0,0,1-.574.873.306.306,0,0,1-.276.041,1.651,1.651,0,0,0-1.479.134,2.723,2.723,0,0,0-1.046,1.025,5.352,5.352,0,0,0-.716,2.711c-.023,1.995-.031,3.99-.044,5.985,0,.523,0,.523-.533.523-.258,0-.517-.01-.775,0-.2.01-.269-.065-.267-.267.009-.786,0-1.571,0-2.357V94.6c.487,0,.957-.008,1.426.012.052,0,.134.168.137.261.015.41.006.821.006,1.308" transform="translate(-1065.303 -88.426)" fill="#dbc16a"/>
    <path id="Trazado_1851" data-name="Trazado 1851" d="M1888.808,320.951a1.671,1.671,0,0,1,1.729,1.679,1.72,1.72,0,0,1-3.439-.06,1.648,1.648,0,0,1,1.71-1.619" transform="translate(-1770.082 -301.044)" fill="#dbc16a"/>
    <path id="Trazado_1852" data-name="Trazado 1852" d="M407.388,235.664c-.468.007-.818-.257-.842-.564a.636.636,0,0,1,.64-.7,2.073,2.073,0,0,0,1.7-1.332c.106-.222.087-.5.19-.728a.571.571,0,0,1,.7-.322.793.793,0,0,1,.434.672,3.242,3.242,0,0,1-1.21,2.257,3.8,3.8,0,0,1-1.611.715" transform="translate(-381.335 -217.606)" fill="#dbc16a"/>
    <path id="Trazado_1853" data-name="Trazado 1853" d="M390.562,139.364a3.115,3.115,0,0,1-2.451-1.584,2.463,2.463,0,0,1-.388-1.39.557.557,0,0,1,.476-.617.588.588,0,0,1,.685.413,6.352,6.352,0,0,0,.435,1.119,1.943,1.943,0,0,0,1.477.863.523.523,0,0,1,.494.379.577.577,0,0,1-.209.707,1.512,1.512,0,0,1-.519.108" transform="translate(-363.681 -127.346)" fill="#dbc16a"/>
    <path id="Trazado_1854" data-name="Trazado 1854" d="M410.111,351.149c.008.47-.233.747-.553.776-.417.038-.63-.119-.716-.654a1.966,1.966,0,0,0-.306-.835,2.229,2.229,0,0,0-1.547-.905.585.585,0,0,1-.535-.718.73.73,0,0,1,.8-.475,3.229,3.229,0,0,1,2.641,1.981,3.656,3.656,0,0,1,.218.831" transform="translate(-381.238 -326.733)" fill="#dbc16a"/>
    <path id="Trazado_1855" data-name="Trazado 1855" d="M312.661,87.456c.565-.082.8.272.751.7a.5.5,0,0,1-.412.464,4.323,4.323,0,0,0-.967.334,1.724,1.724,0,0,0-.93,1.3,1.4,1.4,0,0,1-.195.571.54.54,0,0,1-.683.194.566.566,0,0,1-.407-.583,3.088,3.088,0,0,1,1.619-2.59,2.159,2.159,0,0,1,1.225-.385" transform="translate(-290.604 -82.022)" fill="#dbc16a"/>
    <path id="Trazado_1856" data-name="Trazado 1856" d="M309.708,331.978a3.15,3.15,0,0,1,1.21-2.222,2.774,2.774,0,0,1,1.4-.622,1.026,1.026,0,0,1,.73.03c.3.173.276.438.245.7a.46.46,0,0,1-.447.423,2.044,2.044,0,0,0-1.772,1.251,7.219,7.219,0,0,0-.192.73.557.557,0,0,1-.674.422.677.677,0,0,1-.5-.71" transform="translate(-290.499 -308.674)" fill="#dbc16a"/>
    <path id="Trazado_1857" data-name="Trazado 1857" d="M312.641,216.773a3.158,3.158,0,0,1-2.416-1.613,2.713,2.713,0,0,1-.4-1.334.6.6,0,0,1,.466-.629.558.558,0,0,1,.71.41,6.892,6.892,0,0,0,.307.913,1.693,1.693,0,0,0,1.241.964,1.943,1.943,0,0,1,.639.189.6.6,0,0,1,.205.741.476.476,0,0,1-.5.359h-.248" transform="translate(-290.611 -199.96)" fill="#dbc16a"/>
    <path id="Trazado_1858" data-name="Trazado 1858" d="M349.6,425.93a3.084,3.084,0,0,1,2.421,1.6,2.733,2.733,0,0,1,.37,1.3.58.58,0,0,1-.529.687c-.408.024-.626-.2-.682-.62a1.89,1.89,0,0,0-1.23-1.612,1.592,1.592,0,0,0-.429-.141c-.518-.046-.739-.248-.729-.676.008-.32.295-.614.809-.538" transform="translate(-327.167 -399.507)" fill="#dbc16a"/>
  </g>
</svg>
