<svg xmlns="http://www.w3.org/2000/svg" xmlns:xlink="http://www.w3.org/1999/xlink" width="220" height="220" viewBox="0 0 220 220"><defs><linearGradient id="a" x1="0.5" x2="0.5" y2="1" gradientUnits="objectBoundingBox"><stop offset="0" stop-color="#353c46"/><stop offset="1" stop-color="#11161d"/></linearGradient><clipPath id="b"><rect width="220" height="220" stroke="#707070" stroke-width="1" fill="url(#a)"/></clipPath></defs><g clip-path="url(#b)"><g transform="translate(21.198 21.19)"><path d="M108.287,141.943,141.936,175.6,175.6,141.943l-33.663-33.663Z" transform="translate(56.846 56.867)" fill="url(#a)"/><path d="M321.739,198.812l-15.865-15.868-15.862,15.864,0,0L198.79,290.023l-80.447-80.448-15.864,15.862,96.31,96.313Zm-53.254,0-69.7-69.691L129.1,198.812,198.79,268.5Zm26.624-26.63L198.79,75.867,75.853,198.812l15.865,15.864,15.859-15.864,91.213-91.219,80.457,80.453Zm-79.914,187.5L193.4,337.9,54.327,198.812,188.028,65.1l-16.4-16.4L21.525,198.812,198.79,376.085ZM376.074,198.812,198.79,21.532l-16.4,16.4,16.4,16.4L343.27,198.812l-133.715,133.7,16.408,16.4ZM198.79,0,397.6,198.812,198.79,397.621,0,198.812Z" transform="translate(0 -0.001)" fill="url(#a)"/></g></g></svg>