<svg xmlns="http://www.w3.org/2000/svg" xmlns:xlink="http://www.w3.org/1999/xlink" width="428" height="937" viewBox="0 0 428 937"><defs><clipPath id="a"><rect width="428" height="937" transform="translate(-154)" fill="#fff" stroke="#707070" stroke-width="1"/></clipPath></defs><g transform="translate(154)" clip-path="url(#a)"><g transform="translate(675.429 -263.172) rotate(90)" opacity="0.217"><path d="M668.734-.7l.352.35,669.009,664.418-.357.355-669,664.419-.352-.35L-.71,664.064l.357-.355Zm667.942,664.768L668.734.7.71,664.064l668.024,663.364ZM668.734,71.229l.352.35,596.607,592.485-.357.355L760.087,1166.186l-55.864-55.5.357-.355,449.359-446.272L686.5,199.849,612.844,126.73l.357-.355Zm595.54,592.835L668.734,72.638l-54.47,54.091,72.938,72.41,468.157,464.924-.357.355L705.642,1110.69l54.445,54.086ZM577.335,161.982l.352.35,55.548,55.141-.357.355L183.467,664.064l485.619,482.224,55.512,55.141-.357.355-55.507,55.136-.352-.35L71.708,664.064l.357-.355Zm54.481,55.491-54.481-54.081L73.127,664.064l595.607,591.446,54.445-54.081L668.381,1147,182.048,664.064l.357-.355Zm36.918,35.247,324.66,322.41-.357.355-53.711,53.332-.352-.35L668.734,360.1l-306.2,304.025.01.015-.292.29-53.706,53.337-.352-.35-53.721-53.358.357-.355Zm323.24,322.41-323.24-321L255.89,664.064l52.655,52.3,52.71-52.348-.01-.016.292-.29,307.2-305.014.352.35L939.325,627.407ZM668.734,430.6l.352.35,234.75,233.116-.357.355L668.734,897.55l-.352-.35L433.6,664.064l.357-.355ZM902.417,664.064,668.734,432.007,435.015,664.064,668.734,896.14Zm126.466-53.692,54.074,53.692-.357.355-413.865,411.01-.352-.35L344.043,753.013l.357-.355,53.706-53.337.352.35L668.734,968.049l306.453-304.34Zm52.655,53.692-52.655-52.283-52.991,52.638L668.734,969.458l-.352-.35L398.107,700.73l-52.644,52.283,323.271,321.006Z" fill="#fff"/></g></g></svg>