<svg xmlns="http://www.w3.org/2000/svg" xmlns:xlink="http://www.w3.org/1999/xlink" width="63" height="63" viewBox="0 0 63 63">
  <defs>
    <clipPath id="clip-path">
      <rect id="Rect치ngulo_56" data-name="Rect치ngulo 56" width="18.974" height="35.941" fill="#255dfb"/>
    </clipPath>
  </defs>
  <g id="Grupo_115" data-name="Grupo 115" transform="translate(-1282 426)">
    <rect id="Rect치ngulo_54" data-name="Rect치ngulo 54" width="63" height="63" rx="8" transform="translate(1282 -426)" fill="#dbeafe"/>
    <g id="Grupo_113" data-name="Grupo 113" transform="translate(1304 -412)">
      <g id="Grupo_112" data-name="Grupo 112" clip-path="url(#clip-path)">
        <path id="Trazado_17" data-name="Trazado 17" d="M18.965,15.852l-.455,3.654a1.219,1.219,0,0,1-1.207,1.07H11.383v15.28q-.937.085-1.9.085a21.125,21.125,0,0,1-4.175-.415V20.576H.759A.762.762,0,0,1,0,19.814V15.241a.763.763,0,0,1,.759-.762H5.312V7.621A7.605,7.605,0,0,1,12.9,0h5.312a.763.763,0,0,1,.759.762V5.335a.763.763,0,0,1-.759.762H14.418a3.042,3.042,0,0,0-3.035,3.049v5.335h6.375a1.22,1.22,0,0,1,1.207,1.372" fill="#255dfb"/>
      </g>
    </g>
  </g>
</svg>
