<svg xmlns="http://www.w3.org/2000/svg" width="63" height="63" viewBox="0 0 63 63">
  <g id="Grupo_117" data-name="Grupo 117" transform="translate(-996 340)">
    <rect id="Rectángulo_54" data-name="Rectángulo 54" width="63" height="63" rx="8" transform="translate(996 -340)" fill="#fde2e2"/>
    <path id="Trazado_16" data-name="Trazado 16" d="M121.482,120.784H93.687a4.973,4.973,0,0,0-4.973,4.972V143.14a4.972,4.972,0,0,0,4.973,4.972h27.795a4.972,4.972,0,0,0,4.972-4.972V125.756a4.973,4.973,0,0,0-4.972-4.972m-9.433,14.864-7.729,3.862a1.341,1.341,0,0,1-1.942-1.2v-7.726a1.342,1.342,0,0,1,1.942-1.2l7.729,3.864a1.341,1.341,0,0,1,0,2.4" transform="translate(920.286 -442.784)" fill="#e8000b"/>
  </g>
</svg>
