<svg xmlns="http://www.w3.org/2000/svg" width="18" height="18" viewBox="0 0 18 18">
  <g id="Grupo_825" data-name="Grupo 825" transform="translate(-1766 -2121)">
    <rect id="Rectángulo_222" data-name="Rectángulo 222" width="18" height="18" transform="translate(1766 2121)" fill="none"/>
    <g id="comment_1" data-name="comment 1" transform="translate(1768.129 2123.146)">
      <path id="Vector" d="M8.806,4.412A4.4,4.4,0,1,0,.535,6.506L.016,8.326a.383.383,0,0,0,.368.488.392.392,0,0,0,.1-.015L2.31,8.28a4.209,4.209,0,0,0,.813.34A4.326,4.326,0,0,0,4.4,8.814a4.407,4.407,0,0,0,4.4-4.4Z" transform="translate(0.871 0.854)" fill="#202020"/>
      <path id="Vector-2" data-name="Vector" d="M8.083,7.616,7.564,5.8A4.4,4.4,0,0,0,6.079,0,5.157,5.157,0,0,1,1.016,6.19,5.1,5.1,0,0,1,0,6.084,4.433,4.433,0,0,0,3.7,8.1a4.376,4.376,0,0,0,2.094-.533l1.821.519a.392.392,0,0,0,.1.015.383.383,0,0,0,.368-.488Z" transform="translate(4.26 4.244)" fill="#202020"/>
    </g>
  </g>
</svg>
