<svg xmlns="http://www.w3.org/2000/svg" width="18" height="18" viewBox="0 0 18 18">
  <g id="Grupo_827" data-name="Grupo 827" transform="translate(-1712 -2121)">
    <rect id="Rectángulo_220" data-name="Rectángulo 220" width="18" height="18" transform="translate(1712 2121)" fill="none"/>
    <path id="Vector" d="M11.433,7.8a.52.52,0,0,1-.52.52H4.677a.52.52,0,0,1-.52-.52A3.118,3.118,0,0,1,7.276,4.677H8.315A3.118,3.118,0,0,1,11.433,7.8ZM7.8,0a2.079,2.079,0,1,0,1.47.609A2.079,2.079,0,0,0,7.8,0ZM3.118,0a2.079,2.079,0,1,0,1.47.609A2.079,2.079,0,0,0,3.118,0Zm0,7.8A4.126,4.126,0,0,1,4.339,4.859a2.822,2.822,0,0,0-.993-.182H2.89A2.895,2.895,0,0,0,0,7.567V7.8a.52.52,0,0,0,.52.52H3.212a1.559,1.559,0,0,1-.094-.52Z" transform="translate(1715 2126)" fill="#202020"/>
  </g>
</svg>
