<svg xmlns="http://www.w3.org/2000/svg" xmlns:xlink="http://www.w3.org/1999/xlink" width="22" height="22" viewBox="0 0 22 22">
  <defs>
    <clipPath id="clip-path">
      <rect id="Rect치ngulo_55" data-name="Rect치ngulo 55" width="14.707" height="14.707" fill="#202020"/>
    </clipPath>
  </defs>
  <g id="Grupo_830" data-name="Grupo 830" transform="translate(-1952 -2114)">
    <rect id="Rect치ngulo_225" data-name="Rect치ngulo 225" width="22" height="22" transform="translate(1952 2114)" fill="none"/>
    <g id="Grupo_829" data-name="Grupo 829" transform="translate(1956 2118)">
      <g id="Grupo_106" data-name="Grupo 106" clip-path="url(#clip-path)">
        <path id="Trazado_13" data-name="Trazado 13" d="M11.156,0H3.549A3.551,3.551,0,0,0,0,3.55v7.607a3.551,3.551,0,0,0,3.55,3.55h7.607a3.551,3.551,0,0,0,3.55-3.55V3.55A3.551,3.551,0,0,0,11.156,0m2.282,10.9A2.537,2.537,0,0,1,10.9,13.439H3.8A2.537,2.537,0,0,1,1.267,10.9V3.8A2.537,2.537,0,0,1,3.8,1.268h7.1A2.537,2.537,0,0,1,13.438,3.8Z" transform="translate(0.001 0)" fill="#202020"/>
        <path id="Trazado_14" data-name="Trazado 14" d="M54.114,50.309a3.8,3.8,0,1,0,3.8,3.8,3.8,3.8,0,0,0-3.8-3.8m0,6.339a2.536,2.536,0,1,1,2.536-2.536,2.54,2.54,0,0,1-2.536,2.536" transform="translate(-46.76 -46.759)" fill="#202020"/>
        <path id="Trazado_15" data-name="Trazado 15" d="M151.69,37.457a.761.761,0,1,1,.761-.761.762.762,0,0,1-.761.761" transform="translate(-140.279 -33.4)" fill="#202020"/>
      </g>
    </g>
  </g>
</svg>
