<svg xmlns="http://www.w3.org/2000/svg" width="18" height="18" viewBox="0 0 18 18">
  <g id="Grupo_826" data-name="Grupo 826" transform="translate(-1741 -2121)">
    <rect id="Rectángulo_221" data-name="Rectángulo 221" width="18" height="18" transform="translate(1741 2121)" fill="none"/>
    <g id="thumbs-up_1" data-name="thumbs-up 1" transform="translate(1742 2122)">
      <path id="Vector" d="M.6,11.906H10.5a1.808,1.808,0,0,0,1.786-1.463l.774-4.167a1.763,1.763,0,0,0-.38-1.452,1.822,1.822,0,0,0-1.4-.657H8.44V1.786C8.44.559,7.182,0,6.014,0a.6.6,0,0,0-.6.6,5.619,5.619,0,0,1-.431,2.55L3.329,4.762H.6a.6.6,0,0,0-.6.6v5.953a.6.6,0,0,0,.6.6Zm3.572-6.3L5.818,4a4.769,4.769,0,0,0,.774-2.729c.322.077.66.226.66.517V4.765a.6.6,0,0,0,.6.6h3.435a.636.636,0,0,1,.491.226.566.566,0,0,1,.125.473l-.774,4.167a.617.617,0,0,1-.621.489H4.167Zm-2.976.345H2.976v4.762H1.191Z" transform="translate(1 2)" fill="#202020"/>
    </g>
  </g>
</svg>
