<svg xmlns="http://www.w3.org/2000/svg" width="24.339" height="24.128" viewBox="0 0 24.339 24.128"><g transform="translate(2.153 3.153)"><path d="M14.906,24.975a.375.375,0,0,1-.375-.375V6.423a2.251,2.251,0,0,0-2.048-2.048H6.423A2.251,2.251,0,0,0,4.375,6.423V24.6a.375.375,0,0,1-.75,0V6.423a2.988,2.988,0,0,1,2.8-2.8h6.059a2.989,2.989,0,0,1,2.8,2.8V24.6A.375.375,0,0,1,14.906,24.975Z" transform="translate(-2.788 -4)" fill="#fff"/><path d="M20.847,24.128a.375.375,0,0,1-.375-.375V10.423a2.251,2.251,0,0,0-2.048-2.048H16a.375.375,0,1,1,0-.75h2.423a2.988,2.988,0,0,1,2.8,2.8V23.753A.375.375,0,0,1,20.847,24.128Z" transform="translate(-0.247 -3.153)" fill="#fff"/><path d="M24.811,21.375H3a.375.375,0,0,1,0-.75H24.811a.375.375,0,1,1,0,.75Z" transform="translate(-3 -0.4)" fill="#fff"/><path transform="translate(-1.518 -2.306)" fill="#fff"/><path transform="translate(-1.518 -1.459)" fill="#fff"/><path transform="translate(-1.518 -3.153)" fill="#fff"/><path transform="translate(-2.153 -2.306)" fill="#fff"/><path transform="translate(-2.153 -1.459)" fill="#fff"/><path transform="translate(-2.153 -3.153)" fill="#fff"/><path transform="translate(-0.036 -2.306)" fill="#fff"/><path transform="translate(-0.036 -1.459)" fill="#fff"/></g></svg>