<svg xmlns="http://www.w3.org/2000/svg" width="34" height="34" viewBox="0 0 34 34">
  <g id="icon-configuracion-hover" transform="translate(-989 952)">
    <rect id="Rectángulo_217" data-name="Rectángulo 217" width="34" height="34" transform="translate(989 -952)" fill="none"/>
    <g id="Layer_2" data-name="Layer 2" transform="translate(993 -947)">
      <path id="Vector" d="M9.187,24.855a1.763,1.763,0,0,1-.551-.1,12.981,12.981,0,0,1-3.815-2.2,1.595,1.595,0,0,1-.446-1.908,3.412,3.412,0,0,0-2.783-4.821A1.619,1.619,0,0,1,.167,14.477,12.528,12.528,0,0,1,0,12.421a12.4,12.4,0,0,1,.245-2.45,1.609,1.609,0,0,1,.494-.886,1.626,1.626,0,0,1,.923-.418,3.41,3.41,0,0,0,2.6-1.629,3.41,3.41,0,0,0,.24-3.061,1.625,1.625,0,0,1,.508-1.864A12.923,12.923,0,0,1,8.6.1,1.617,1.617,0,0,1,10.43.608a3.433,3.433,0,0,0,1.2.968,3.439,3.439,0,0,0,1.5.346,3.441,3.441,0,0,0,1.5-.346,3.444,3.444,0,0,0,1.2-.968,1.64,1.64,0,0,1,.832-.55,1.621,1.621,0,0,1,1,.043A12.867,12.867,0,0,1,21.5,2.333a1.609,1.609,0,0,1,.481,1.811,3.43,3.43,0,0,0,2.7,4.638,1.6,1.6,0,0,1,1.348,1.3,12.577,12.577,0,0,1,.219,2.335,12.733,12.733,0,0,1-.228,2.214,1.611,1.611,0,0,1-.47.89,1.629,1.629,0,0,1-.9.44,3.413,3.413,0,0,0-2.74,4.716,1.618,1.618,0,0,1-.472,1.847,13.1,13.1,0,0,1-3.5,2.091,1.609,1.609,0,0,1-1.89-.534A3.434,3.434,0,0,0,13.3,22.7h-.006a3.385,3.385,0,0,0-2.794,1.47,1.61,1.61,0,0,1-1.313.683ZM13.125,8.046a4.374,4.374,0,1,0,3.094,1.282A4.353,4.353,0,0,0,13.125,8.046Z" fill="#6418c4"/>
    </g>
  </g>
</svg>
