<svg xmlns="http://www.w3.org/2000/svg" width="34" height="34" viewBox="0 0 34 34">
  <g id="icon-participacion" transform="translate(-822 952)">
    <rect id="Rectángulo_213" data-name="Rectángulo 213" width="34" height="34" transform="translate(822 -952)" fill="none"/>
    <g id="read_1" data-name="read 1" transform="translate(825.175 -947.958)">
      <g id="Group" transform="translate(0 5.988)">
        <path id="Vector" d="M19.122.414A1.394,1.394,0,0,0,17.155.4L6.871,10.562,2.4,5.934A1.394,1.394,0,1,0,.388,7.865L.4,7.872l5.451,5.649a1.394,1.394,0,0,0,.99.418h.015a1.394,1.394,0,0,0,.976-.4L19.109,2.381A1.394,1.394,0,0,0,19.122.414Z" transform="translate(0 0)" fill="#a5a5a5"/>
        <path id="Vector-2" data-name="Vector" d="M1.738,13.46a1.394,1.394,0,0,0,.987.418h.015a1.394,1.394,0,0,0,.976-.4L15,2.32A1.394,1.394,0,0,0,13.047.338L2.767,10.5,2.4,10.12A1.394,1.394,0,1,0,.388,12.051l.007.007Z" transform="translate(12.474 0.061)" fill="#a5a5a5"/>
      </g>
    </g>
  </g>
</svg>
