<svg xmlns="http://www.w3.org/2000/svg" width="34" height="34" viewBox="0 0 34 34">
  <g id="icon-dashboard" transform="translate(-737 952)">
    <rect id="Rectángulo_218" data-name="Rectángulo 218" width="34" height="34" transform="translate(737 -952)" fill="none"/>
    <g id="Grupo_820" data-name="Grupo 820" transform="translate(68.999 -0.495)">
      <path id="Vector" d="M15.673,24.083c-1.929,0-2.748,0-5.8-.017H9.849l-5.225-.022a1.407,1.407,0,0,1-.578-.125,1.422,1.422,0,0,1-.477-.351,14.167,14.167,0,1,1,21.16.039,1.41,1.41,0,0,1-.477.349,1.431,1.431,0,0,1-.578.123l-5.341,0ZM14.151,9.917c-.118,0-.237,0-.355.015A4.267,4.267,0,0,0,12.443,18.1a4.268,4.268,0,0,0,2.765.222,4.268,4.268,0,0,0,3.208-4.152,4.186,4.186,0,0,0-.223-1.294l2.477-1.814a1.417,1.417,0,0,0-.628-2.527,1.429,1.429,0,0,0-.227-.018,1.407,1.407,0,0,0-.818.26l-2.511,1.839A4.254,4.254,0,0,0,14.151,9.917Z" transform="translate(670.834 -946.648)" fill="#a5a5a5"/>
      <path id="Vector-2" data-name="Vector" d="M1.417,2.833A1.417,1.417,0,1,1,2.833,1.417,1.417,1.417,0,0,1,1.417,2.833Z" transform="translate(683.583 -933.898)" fill="#a5a5a5"/>
    </g>
  </g>
</svg>
