<svg xmlns="http://www.w3.org/2000/svg" width="34" height="34" viewBox="0 0 34 34">
  <g id="icon-contenido" transform="translate(-948 952)">
    <rect id="Rectángulo_216" data-name="Rectángulo 216" width="34" height="34" transform="translate(948 -952)" fill="none"/>
    <g id="invoice_1" data-name="invoice 1" transform="translate(952.833 -947.167)">
      <path id="Vector" d="M18.269,0H4.06A1.015,1.015,0,0,0,3.4.254a4.06,4.06,0,0,1,2.69,3.4,1.776,1.776,0,0,1,0,.406V21.314a1.014,1.014,0,0,0,1.675.771l2.893-2.476,2.893,2.476a1.015,1.015,0,0,0,1.319,0l2.893-2.476,2.893,2.476a1.015,1.015,0,0,0,.66.244,1.076,1.076,0,0,0,.426-.091,1.015,1.015,0,0,0,.589-.924V4.06A4.06,4.06,0,0,0,18.269,0ZM17.254,14.209h-6.09a1.015,1.015,0,1,1,0-2.03h6.09a1.015,1.015,0,0,1,0,2.03Zm0-4.06h-6.09a1.015,1.015,0,1,1,0-2.03h6.09a1.015,1.015,0,1,1,0,2.03Zm0-4.06h-6.09a1.015,1.015,0,1,1,0-2.03h6.09a1.015,1.015,0,0,1,0,2.03ZM4.06,4.06v8.119H1.015A1.015,1.015,0,0,1,0,11.164V3.654a2.04,2.04,0,1,1,4.06.406Z" transform="translate(1.167 1.167)" fill="#a5a5a5"/>
    </g>
  </g>
</svg>
