<svg xmlns="http://www.w3.org/2000/svg" xmlns:xlink="http://www.w3.org/1999/xlink" width="222.851" height="222.851" viewBox="0 0 222.851 222.851">
  <defs>
    <linearGradient id="linear-gradient" x1="0.5" x2="0.5" y2="1" gradientUnits="objectBoundingBox">
      <stop offset="0" stop-color="#6418c3"/>
      <stop offset="1" stop-color="#ab18c3"/>
    </linearGradient>
    <filter id="ellipse" x="0" y="0" width="222.851" height="222.851" filterUnits="userSpaceOnUse">
      <feOffset dy="4" input="SourceAlpha"/>
      <feGaussianBlur stdDeviation="8" result="blur"/>
      <feFlood flood-opacity="0.122"/>
      <feComposite operator="in" in2="blur"/>
      <feComposite in="SourceGraphic"/>
    </filter>
  </defs>
  <g id="icon" transform="translate(88.057 194.37) rotate(-120)">
    <g transform="matrix(-0.5, 0.87, -0.87, -0.5, 212.36, 20.93)" filter="url(#ellipse)">
      <g id="ellipse-2" data-name="ellipse" transform="translate(88 194.85) rotate(-120)" stroke="#fff" stroke-width="8" fill="url(#linear-gradient)">
        <circle cx="64" cy="64" r="64" stroke="none"/>
        <circle cx="64" cy="64" r="60" fill="none"/>
      </g>
    </g>
    <g id="pointer" transform="translate(69.132 93.442) rotate(-150)">
      <g id="Group" transform="translate(0 0)">
        <path id="Vector" d="M23.811,20.314,12.994,39.378,2.243,20.314A13.088,13.088,0,0,1,.592,16.82,12.248,12.248,0,0,1,0,12.994,12.92,12.92,0,0,1,3.825,3.826,12.8,12.8,0,0,1,12.994,0a12.952,12.952,0,0,1,9.233,3.826,13.138,13.138,0,0,1,3.761,9.168,14.494,14.494,0,0,1-.527,3.826,15.475,15.475,0,0,1-1.65,3.494ZM17.28,7.716a6.036,6.036,0,0,0-4.285-1.781A5.777,5.777,0,0,0,8.772,7.716a5.9,5.9,0,0,0,0,8.445,5.777,5.777,0,0,0,4.222,1.779A6.016,6.016,0,0,0,17.28,7.716Z" transform="translate(7.48 8.113)" fill="#fff"/>
        <path id="Vector-2" data-name="Vector" d="M5.3,15.367a2.785,2.785,0,0,1-3.166,1.848,2.678,2.678,0,0,1-2.044-3.3A19.016,19.016,0,0,1,7.677,3.824a23.323,23.323,0,0,1,25.593,0,18.713,18.713,0,0,1,7.585,10.092,2.64,2.64,0,0,1-1.98,3.3,2.747,2.747,0,0,1-3.165-1.848,13.533,13.533,0,0,0-5.473-7.189,17.28,17.28,0,0,0-9.763-2.9,16.905,16.905,0,0,0-9.7,2.9A13.224,13.224,0,0,0,5.3,15.367Z" fill="#fff"/>
      </g>
    </g>
  </g>
</svg>
