<svg id="calendar-silhouette_1" data-name="calendar-silhouette 1" xmlns="http://www.w3.org/2000/svg" width="28" height="28" viewBox="0 0 28 28">
  <path id="calendar-silhouette_1_Background_Mask_" data-name="calendar-silhouette 1 (Background/Mask)" d="M0,0H28V28H0Z" fill="none"/>
  <path id="Vector" d="M18.667,3.5V1.167a1.167,1.167,0,0,0-2.333,0V3.5H7V1.167a1.167,1.167,0,1,0-2.333,0V3.5H3.5A3.5,3.5,0,0,0,0,7V8.167H23.333V7a3.5,3.5,0,0,0-3.5-3.5Z" transform="translate(2.334 2.334)" fill="#6418c3"/>
  <path id="Vector-2" data-name="Vector" d="M1.025,11.808A3.5,3.5,0,0,0,3.5,12.833H19.833a3.5,3.5,0,0,0,3.5-3.5V0H0V9.333A3.5,3.5,0,0,0,1.025,11.808Z" transform="translate(2.334 12.834)" fill="#6418c3"/>
</svg>
