<svg xmlns="http://www.w3.org/2000/svg" width="34" height="34" viewBox="0 0 34 34">
  <g id="icon-sentimientos" transform="translate(-863 952)">
    <rect id="Rectángulo_214" data-name="Rectángulo 214" width="34" height="34" transform="translate(863 -952)" fill="none"/>
    <g id="smile_2" data-name="smile 2" transform="translate(868 -947)">
      <g id="Layer_2" data-name="Layer 2">
        <g id="smile">
          <path id="icon" d="M12,0a12,12,0,1,0,8.485,3.515A12,12,0,0,0,12,0Zm5.024,7.371a1.539,1.539,0,1,1-1.089.451,1.539,1.539,0,0,1,1.089-.451Zm-10.048,0a1.539,1.539,0,1,1-1.089.451,1.539,1.539,0,0,1,1.089-.451Zm11.5,9.131a8.839,8.839,0,0,1-6.366,3.088h-.158a9.806,9.806,0,0,1-6.415-3.066.948.948,0,0,1,1.333-1.348A8.02,8.02,0,0,0,12,17.7a7.017,7.017,0,0,0,5.1-2.5.947.947,0,0,1,1.631.658.927.927,0,0,1-.261.643Z" transform="translate(0)" fill="#a5a5a5"/>
        </g>
      </g>
    </g>
  </g>
</svg>
