<svg xmlns="http://www.w3.org/2000/svg" width="34" height="34" viewBox="0 0 34 34">
  <g id="icon-audiencias-hover" transform="translate(-904 952)">
    <rect id="Rectángulo_215" data-name="Rectángulo 215" width="34" height="34" transform="translate(904 -952)" fill="none"/>
    <path id="Vector" d="M26.042,17.756a1.184,1.184,0,0,1-1.184,1.184h-14.2A1.184,1.184,0,0,1,9.47,17.756a7.1,7.1,0,0,1,7.1-7.1H18.94a7.1,7.1,0,0,1,7.1,7.1ZM17.756,0A4.735,4.735,0,1,0,21.1,1.387,4.735,4.735,0,0,0,17.756,0ZM7.1,0A4.735,4.735,0,1,0,10.45,1.387,4.735,4.735,0,0,0,7.1,0Zm0,17.756a9.4,9.4,0,0,1,2.782-6.688,6.428,6.428,0,0,0-2.261-.414H6.582A6.593,6.593,0,0,0,0,17.235v.521A1.184,1.184,0,0,0,1.184,18.94H7.315A3.551,3.551,0,0,1,7.1,17.756Z" transform="translate(907.979 -944.47)" fill="#6418c4"/>
  </g>
</svg>
