<svg xmlns="http://www.w3.org/2000/svg" xmlns:xlink="http://www.w3.org/1999/xlink" width="491" height="68" viewBox="0 0 491 68">
  <defs>
    <clipPath id="clip-path">
      <path id="background" d="M34,0H457a34,34,0,0,1,0,68H34A34,34,0,0,1,34,0Z" fill="#fafafa"/>
    </clipPath>
    <clipPath id="clip-path-2">
      <rect id="Rectángulo_1" data-name="Rectángulo 1" width="25" height="25" transform="translate(0 -0.91)" fill="#fff"/>
    </clipPath>
  </defs>
  <g id="Search_icon" data-name="Search icon" clip-path="url(#clip-path)">
    <g id="search_2" data-name="search 2" transform="translate(39.5 22.91)" clip-path="url(#clip-path-2)">
      <path id="Trazado_1" data-name="Trazado 1" d="M19.146,21.26A10.624,10.624,0,1,1,29.77,10.636,10.624,10.624,0,0,1,19.146,21.26Zm0-18.213a7.589,7.589,0,1,0,7.589,7.589A7.589,7.589,0,0,0,19.146,3.048Z" transform="translate(-5.477 -0.21)" fill="#6418c3"/>
      <path id="Trazado_2" data-name="Trazado 2" d="M1.527,52.267A1.518,1.518,0,0,1,.44,49.68l.009-.009,5.707-5.707A1.551,1.551,0,1,1,8.311,46.2L2.6,51.827A1.517,1.517,0,0,1,1.527,52.267Z" transform="translate(0 -28.181)" fill="#6418c3"/>
    </g>
  </g>
</svg>
